<mxfile host="Electron" modified="2023-04-16T11:29:52.622Z" agent="Mozilla/5.0 (X11; Linux x86_64) AppleWebKit/537.36 (KHTML, like Gecko) draw.io/21.1.2 Chrome/106.0.5249.199 Electron/21.4.3 Safari/537.36" etag="TOsL1kXoD5YM2NpduB3G" version="21.1.2" type="device">
  <diagram id="__g0TfonTzCmBBWyso2h" name="Page-1">
    <mxGraphModel dx="7785" dy="4055" grid="1" gridSize="10" guides="1" tooltips="1" connect="1" arrows="1" fold="1" page="1" pageScale="1" pageWidth="850" pageHeight="1100" math="0" shadow="0">
      <root>
        <mxCell id="0" />
        <mxCell id="1" parent="0" />
        <mxCell id="Qv8bskhtYxNWibmQk5ua-137" value="Decode" style="rounded=0;whiteSpace=wrap;html=1;fillColor=#f5f5f5;fontColor=#333333;strokeColor=#666666;" parent="1" vertex="1">
          <mxGeometry x="3160" y="3025" width="924.91" height="840" as="geometry" />
        </mxCell>
        <mxCell id="7qlLy7Mz_lEwMJBJuUpn-19" value="" style="rounded=1;whiteSpace=wrap;html=1;fontSize=40;fillColor=#f5f5f5;fontColor=#333333;strokeColor=#666666;" parent="1" vertex="1">
          <mxGeometry x="-2900" y="-50" width="1340.09" height="750" as="geometry" />
        </mxCell>
        <mxCell id="EKfL-BwjNIBpNO0MJgjR-17" style="edgeStyle=orthogonalEdgeStyle;rounded=0;orthogonalLoop=1;jettySize=auto;html=1;exitX=1;exitY=0.5;exitDx=0;exitDy=0;entryX=0;entryY=0.5;entryDx=0;entryDy=0;" parent="1" source="EKfL-BwjNIBpNO0MJgjR-1" target="EKfL-BwjNIBpNO0MJgjR-14" edge="1">
          <mxGeometry relative="1" as="geometry" />
        </mxCell>
        <mxCell id="EKfL-BwjNIBpNO0MJgjR-1" value="is&lt;br&gt;speculative" style="rounded=0;whiteSpace=wrap;html=1;fillColor=#f5f5f5;fontColor=#333333;strokeColor=#666666;" parent="1" vertex="1">
          <mxGeometry x="200" y="440" width="80" height="80" as="geometry" />
        </mxCell>
        <mxCell id="EKfL-BwjNIBpNO0MJgjR-16" style="edgeStyle=orthogonalEdgeStyle;rounded=0;orthogonalLoop=1;jettySize=auto;html=1;exitX=1;exitY=0.5;exitDx=0;exitDy=0;entryX=0;entryY=0.5;entryDx=0;entryDy=0;" parent="1" source="EKfL-BwjNIBpNO0MJgjR-2" target="EKfL-BwjNIBpNO0MJgjR-12" edge="1">
          <mxGeometry relative="1" as="geometry">
            <Array as="points">
              <mxPoint x="385" y="560" />
            </Array>
          </mxGeometry>
        </mxCell>
        <mxCell id="Qv8bskhtYxNWibmQk5ua-10" style="edgeStyle=orthogonalEdgeStyle;rounded=0;orthogonalLoop=1;jettySize=auto;html=1;exitX=0.75;exitY=1;exitDx=0;exitDy=0;entryX=0.75;entryY=1;entryDx=0;entryDy=0;" parent="1" target="EKfL-BwjNIBpNO0MJgjR-2" edge="1">
          <mxGeometry relative="1" as="geometry">
            <mxPoint x="280" y="620" as="sourcePoint" />
          </mxGeometry>
        </mxCell>
        <mxCell id="EKfL-BwjNIBpNO0MJgjR-2" value="use&lt;br style=&quot;border-color: var(--border-color);&quot;&gt;arch2spec&lt;br style=&quot;border-color: var(--border-color);&quot;&gt;map" style="rounded=0;whiteSpace=wrap;html=1;fillColor=#f5f5f5;fontColor=#333333;strokeColor=#666666;" parent="1" vertex="1">
          <mxGeometry x="200" y="520" width="80" height="80" as="geometry" />
        </mxCell>
        <mxCell id="EKfL-BwjNIBpNO0MJgjR-25" style="edgeStyle=orthogonalEdgeStyle;rounded=0;orthogonalLoop=1;jettySize=auto;html=1;exitX=1;exitY=0.5;exitDx=0;exitDy=0;entryX=0.75;entryY=1;entryDx=0;entryDy=0;" parent="1" source="EKfL-BwjNIBpNO0MJgjR-4" target="EKfL-BwjNIBpNO0MJgjR-14" edge="1">
          <mxGeometry relative="1" as="geometry">
            <Array as="points">
              <mxPoint x="360" y="960" />
              <mxPoint x="360" y="800" />
            </Array>
          </mxGeometry>
        </mxCell>
        <mxCell id="EKfL-BwjNIBpNO0MJgjR-4" value="arch2spec&lt;br&gt;map" style="rounded=0;whiteSpace=wrap;html=1;fillColor=#f5f5f5;strokeColor=#666666;fontColor=#333333;" parent="1" vertex="1">
          <mxGeometry x="200" y="920" width="80" height="80" as="geometry" />
        </mxCell>
        <mxCell id="EKfL-BwjNIBpNO0MJgjR-24" style="edgeStyle=orthogonalEdgeStyle;rounded=0;orthogonalLoop=1;jettySize=auto;html=1;exitX=1;exitY=0.5;exitDx=0;exitDy=0;entryX=0.75;entryY=1;entryDx=0;entryDy=0;" parent="1" source="EKfL-BwjNIBpNO0MJgjR-5" target="EKfL-BwjNIBpNO0MJgjR-12" edge="1">
          <mxGeometry relative="1" as="geometry">
            <Array as="points">
              <mxPoint x="320" y="880" />
              <mxPoint x="320" y="720" />
            </Array>
          </mxGeometry>
        </mxCell>
        <mxCell id="EKfL-BwjNIBpNO0MJgjR-5" value="arch2spec&lt;br&gt;map" style="rounded=0;whiteSpace=wrap;html=1;fillColor=#f5f5f5;strokeColor=#666666;fontColor=#333333;" parent="1" vertex="1">
          <mxGeometry x="200" y="840" width="80" height="80" as="geometry" />
        </mxCell>
        <mxCell id="EKfL-BwjNIBpNO0MJgjR-22" style="edgeStyle=orthogonalEdgeStyle;rounded=0;orthogonalLoop=1;jettySize=auto;html=1;exitX=1;exitY=0.5;exitDx=0;exitDy=0;entryX=0.25;entryY=1;entryDx=0;entryDy=0;" parent="1" source="EKfL-BwjNIBpNO0MJgjR-6" target="EKfL-BwjNIBpNO0MJgjR-12" edge="1">
          <mxGeometry relative="1" as="geometry" />
        </mxCell>
        <mxCell id="EKfL-BwjNIBpNO0MJgjR-6" value="arch2state&lt;br&gt;map" style="rounded=0;whiteSpace=wrap;html=1;fillColor=#f5f5f5;fontColor=#333333;strokeColor=#666666;" parent="1" vertex="1">
          <mxGeometry x="200" y="640" width="80" height="80" as="geometry" />
        </mxCell>
        <mxCell id="EKfL-BwjNIBpNO0MJgjR-23" style="edgeStyle=orthogonalEdgeStyle;rounded=0;orthogonalLoop=1;jettySize=auto;html=1;exitX=1;exitY=0.5;exitDx=0;exitDy=0;entryX=0.25;entryY=1;entryDx=0;entryDy=0;" parent="1" source="EKfL-BwjNIBpNO0MJgjR-7" target="EKfL-BwjNIBpNO0MJgjR-14" edge="1">
          <mxGeometry relative="1" as="geometry" />
        </mxCell>
        <mxCell id="EKfL-BwjNIBpNO0MJgjR-7" value="arch2state&lt;br&gt;map" style="rounded=0;whiteSpace=wrap;html=1;fillColor=#f5f5f5;fontColor=#333333;strokeColor=#666666;" parent="1" vertex="1">
          <mxGeometry x="200" y="720" width="80" height="80" as="geometry" />
        </mxCell>
        <mxCell id="XPyX1MKlA9ATD1nAIHYy-14" style="edgeStyle=orthogonalEdgeStyle;rounded=0;orthogonalLoop=1;jettySize=auto;html=1;exitX=1;exitY=0.5;exitDx=0;exitDy=0;entryX=-0.01;entryY=0.299;entryDx=0;entryDy=0;entryPerimeter=0;" edge="1" parent="1" source="EKfL-BwjNIBpNO0MJgjR-8" target="7qlLy7Mz_lEwMJBJuUpn-1">
          <mxGeometry relative="1" as="geometry" />
        </mxCell>
        <mxCell id="XPyX1MKlA9ATD1nAIHYy-15" style="edgeStyle=orthogonalEdgeStyle;rounded=0;orthogonalLoop=1;jettySize=auto;html=1;exitX=1;exitY=0.5;exitDx=0;exitDy=0;entryX=0.5;entryY=0;entryDx=0;entryDy=0;" edge="1" parent="1" source="XPyX1MKlA9ATD1nAIHYy-29" target="EKfL-BwjNIBpNO0MJgjR-8">
          <mxGeometry relative="1" as="geometry">
            <Array as="points">
              <mxPoint x="1830" y="839" />
              <mxPoint x="1590" y="839" />
              <mxPoint x="1590" y="190" />
              <mxPoint x="1210" y="190" />
            </Array>
          </mxGeometry>
        </mxCell>
        <mxCell id="EKfL-BwjNIBpNO0MJgjR-8" value="ROB&lt;br&gt;Data" style="rounded=0;whiteSpace=wrap;html=1;fillColor=#f5f5f5;fontColor=#333333;strokeColor=#666666;" parent="1" vertex="1">
          <mxGeometry x="1170" y="700" width="80" height="80" as="geometry" />
        </mxCell>
        <mxCell id="XPyX1MKlA9ATD1nAIHYy-13" style="edgeStyle=orthogonalEdgeStyle;rounded=0;orthogonalLoop=1;jettySize=auto;html=1;exitX=1;exitY=0.5;exitDx=0;exitDy=0;entryX=0;entryY=0.345;entryDx=0;entryDy=0;entryPerimeter=0;" edge="1" parent="1" source="EKfL-BwjNIBpNO0MJgjR-9" target="7qlLy7Mz_lEwMJBJuUpn-1">
          <mxGeometry relative="1" as="geometry" />
        </mxCell>
        <mxCell id="EKfL-BwjNIBpNO0MJgjR-9" value="ROB&lt;br&gt;Data" style="rounded=0;whiteSpace=wrap;html=1;fillColor=#f5f5f5;fontColor=#333333;strokeColor=#666666;" parent="1" vertex="1">
          <mxGeometry x="1170" y="780" width="80" height="80" as="geometry" />
        </mxCell>
        <mxCell id="XPyX1MKlA9ATD1nAIHYy-6" style="edgeStyle=orthogonalEdgeStyle;rounded=0;orthogonalLoop=1;jettySize=auto;html=1;exitX=1;exitY=0.5;exitDx=0;exitDy=0;entryX=-0.021;entryY=0.328;entryDx=0;entryDy=0;entryPerimeter=0;" edge="1" parent="1" source="EKfL-BwjNIBpNO0MJgjR-10" target="XPyX1MKlA9ATD1nAIHYy-1">
          <mxGeometry relative="1" as="geometry" />
        </mxCell>
        <mxCell id="EKfL-BwjNIBpNO0MJgjR-10" value="has&lt;br&gt;finished" style="rounded=0;whiteSpace=wrap;html=1;fillColor=#fff2cc;strokeColor=#d6b656;" parent="1" vertex="1">
          <mxGeometry x="560" y="760" width="80" height="80" as="geometry" />
        </mxCell>
        <mxCell id="XPyX1MKlA9ATD1nAIHYy-5" style="edgeStyle=orthogonalEdgeStyle;rounded=0;orthogonalLoop=1;jettySize=auto;html=1;exitX=1;exitY=0.5;exitDx=0;exitDy=0;entryX=0;entryY=0.374;entryDx=0;entryDy=0;entryPerimeter=0;" edge="1" parent="1" source="EKfL-BwjNIBpNO0MJgjR-11" target="XPyX1MKlA9ATD1nAIHYy-1">
          <mxGeometry relative="1" as="geometry" />
        </mxCell>
        <mxCell id="XPyX1MKlA9ATD1nAIHYy-16" style="edgeStyle=orthogonalEdgeStyle;rounded=0;orthogonalLoop=1;jettySize=auto;html=1;exitX=1;exitY=0.5;exitDx=0;exitDy=0;entryX=0.5;entryY=1;entryDx=0;entryDy=0;" edge="1" parent="1" source="XPyX1MKlA9ATD1nAIHYy-29" target="EKfL-BwjNIBpNO0MJgjR-11">
          <mxGeometry relative="1" as="geometry">
            <Array as="points">
              <mxPoint x="1830" y="839" />
              <mxPoint x="1590" y="839" />
              <mxPoint x="1590" y="2030" />
              <mxPoint x="600" y="2030" />
            </Array>
          </mxGeometry>
        </mxCell>
        <mxCell id="EKfL-BwjNIBpNO0MJgjR-11" value="has&lt;br style=&quot;border-color: var(--border-color);&quot;&gt;finished" style="rounded=0;whiteSpace=wrap;html=1;fillColor=#fff2cc;strokeColor=#d6b656;" parent="1" vertex="1">
          <mxGeometry x="560" y="840" width="80" height="80" as="geometry" />
        </mxCell>
        <mxCell id="EKfL-BwjNIBpNO0MJgjR-55" style="edgeStyle=orthogonalEdgeStyle;rounded=0;orthogonalLoop=1;jettySize=auto;html=1;exitX=0.5;exitY=0;exitDx=0;exitDy=0;entryX=0;entryY=0.5;entryDx=0;entryDy=0;" parent="1" source="EKfL-BwjNIBpNO0MJgjR-12" target="EKfL-BwjNIBpNO0MJgjR-45" edge="1">
          <mxGeometry relative="1" as="geometry" />
        </mxCell>
        <mxCell id="EKfL-BwjNIBpNO0MJgjR-56" style="edgeStyle=orthogonalEdgeStyle;rounded=0;orthogonalLoop=1;jettySize=auto;html=1;exitX=0.5;exitY=0;exitDx=0;exitDy=0;entryX=0;entryY=0.5;entryDx=0;entryDy=0;" parent="1" source="EKfL-BwjNIBpNO0MJgjR-12" target="EKfL-BwjNIBpNO0MJgjR-49" edge="1">
          <mxGeometry relative="1" as="geometry" />
        </mxCell>
        <mxCell id="EKfL-BwjNIBpNO0MJgjR-12" value="" style="shape=trapezoid;perimeter=trapezoidPerimeter;whiteSpace=wrap;html=1;fixedSize=1;rotation=90;fillColor=#ffe6cc;strokeColor=#d79b00;" parent="1" vertex="1">
          <mxGeometry x="345" y="690" width="80" height="20" as="geometry" />
        </mxCell>
        <mxCell id="EKfL-BwjNIBpNO0MJgjR-53" style="edgeStyle=orthogonalEdgeStyle;rounded=0;orthogonalLoop=1;jettySize=auto;html=1;exitX=0.5;exitY=0;exitDx=0;exitDy=0;entryX=0;entryY=0.5;entryDx=0;entryDy=0;" parent="1" source="EKfL-BwjNIBpNO0MJgjR-14" target="EKfL-BwjNIBpNO0MJgjR-47" edge="1">
          <mxGeometry relative="1" as="geometry" />
        </mxCell>
        <mxCell id="EKfL-BwjNIBpNO0MJgjR-54" style="edgeStyle=orthogonalEdgeStyle;rounded=0;orthogonalLoop=1;jettySize=auto;html=1;exitX=0.5;exitY=0;exitDx=0;exitDy=0;entryX=0;entryY=0.5;entryDx=0;entryDy=0;" parent="1" source="EKfL-BwjNIBpNO0MJgjR-14" target="EKfL-BwjNIBpNO0MJgjR-51" edge="1">
          <mxGeometry relative="1" as="geometry" />
        </mxCell>
        <mxCell id="EKfL-BwjNIBpNO0MJgjR-14" value="" style="shape=trapezoid;perimeter=trapezoidPerimeter;whiteSpace=wrap;html=1;fixedSize=1;rotation=90;fillColor=#ffe6cc;strokeColor=#d79b00;" parent="1" vertex="1">
          <mxGeometry x="380" y="770" width="80" height="20" as="geometry" />
        </mxCell>
        <mxCell id="EKfL-BwjNIBpNO0MJgjR-136" style="edgeStyle=orthogonalEdgeStyle;rounded=0;orthogonalLoop=1;jettySize=auto;html=1;exitX=0;exitY=0.5;exitDx=0;exitDy=0;entryX=0;entryY=0.5;entryDx=0;entryDy=0;" parent="1" target="EKfL-BwjNIBpNO0MJgjR-1" edge="1">
          <mxGeometry relative="1" as="geometry">
            <mxPoint y="479.8888888888889" as="sourcePoint" />
            <mxPoint x="170" y="480" as="targetPoint" />
          </mxGeometry>
        </mxCell>
        <mxCell id="EKfL-BwjNIBpNO0MJgjR-137" style="edgeStyle=orthogonalEdgeStyle;rounded=0;orthogonalLoop=1;jettySize=auto;html=1;exitX=0;exitY=0.5;exitDx=0;exitDy=0;entryX=0;entryY=0.5;entryDx=0;entryDy=0;" parent="1" target="EKfL-BwjNIBpNO0MJgjR-2" edge="1">
          <mxGeometry relative="1" as="geometry">
            <mxPoint y="559.8888888888889" as="sourcePoint" />
            <mxPoint x="170" y="560" as="targetPoint" />
          </mxGeometry>
        </mxCell>
        <mxCell id="EKfL-BwjNIBpNO0MJgjR-138" style="edgeStyle=orthogonalEdgeStyle;rounded=0;orthogonalLoop=1;jettySize=auto;html=1;exitX=0;exitY=0.5;exitDx=0;exitDy=0;entryX=0;entryY=0.5;entryDx=0;entryDy=0;" parent="1" target="EKfL-BwjNIBpNO0MJgjR-6" edge="1">
          <mxGeometry relative="1" as="geometry">
            <mxPoint y="480" as="sourcePoint" />
            <mxPoint x="170" y="680" as="targetPoint" />
          </mxGeometry>
        </mxCell>
        <mxCell id="EKfL-BwjNIBpNO0MJgjR-139" style="edgeStyle=orthogonalEdgeStyle;rounded=0;orthogonalLoop=1;jettySize=auto;html=1;exitX=0;exitY=0.5;exitDx=0;exitDy=0;entryX=0;entryY=0.5;entryDx=0;entryDy=0;" parent="1" target="EKfL-BwjNIBpNO0MJgjR-7" edge="1">
          <mxGeometry relative="1" as="geometry">
            <mxPoint y="560" as="sourcePoint" />
            <Array as="points">
              <mxPoint x="40" y="560" />
              <mxPoint x="40" y="760" />
            </Array>
            <mxPoint x="170" y="760" as="targetPoint" />
          </mxGeometry>
        </mxCell>
        <mxCell id="EKfL-BwjNIBpNO0MJgjR-140" style="edgeStyle=orthogonalEdgeStyle;rounded=0;orthogonalLoop=1;jettySize=auto;html=1;exitX=0;exitY=0.5;exitDx=0;exitDy=0;entryX=0;entryY=0.5;entryDx=0;entryDy=0;" parent="1" target="EKfL-BwjNIBpNO0MJgjR-5" edge="1">
          <mxGeometry relative="1" as="geometry">
            <mxPoint y="480" as="sourcePoint" />
            <mxPoint x="170" y="880" as="targetPoint" />
          </mxGeometry>
        </mxCell>
        <mxCell id="EKfL-BwjNIBpNO0MJgjR-141" style="edgeStyle=orthogonalEdgeStyle;rounded=0;orthogonalLoop=1;jettySize=auto;html=1;exitX=0;exitY=0.5;exitDx=0;exitDy=0;entryX=0;entryY=0.5;entryDx=0;entryDy=0;" parent="1" target="EKfL-BwjNIBpNO0MJgjR-4" edge="1">
          <mxGeometry relative="1" as="geometry">
            <mxPoint y="560" as="sourcePoint" />
            <Array as="points">
              <mxPoint x="40" y="560" />
              <mxPoint x="40" y="960" />
            </Array>
            <mxPoint x="170" y="960" as="targetPoint" />
          </mxGeometry>
        </mxCell>
        <mxCell id="XPyX1MKlA9ATD1nAIHYy-8" style="edgeStyle=orthogonalEdgeStyle;rounded=0;orthogonalLoop=1;jettySize=auto;html=1;exitX=1;exitY=0.5;exitDx=0;exitDy=0;entryX=0.003;entryY=0.212;entryDx=0;entryDy=0;entryPerimeter=0;" edge="1" parent="1" source="EKfL-BwjNIBpNO0MJgjR-45" target="XPyX1MKlA9ATD1nAIHYy-1">
          <mxGeometry relative="1" as="geometry" />
        </mxCell>
        <mxCell id="EKfL-BwjNIBpNO0MJgjR-45" value="tag0" style="rounded=0;whiteSpace=wrap;html=1;fillColor=#dae8fc;strokeColor=#6c8ebf;" parent="1" vertex="1">
          <mxGeometry x="530" y="560" width="30" height="80" as="geometry" />
        </mxCell>
        <mxCell id="EKfL-BwjNIBpNO0MJgjR-46" value="" style="triangle;whiteSpace=wrap;html=1;rotation=-90;fillColor=#dae8fc;strokeColor=#6c8ebf;" parent="1" vertex="1">
          <mxGeometry x="540" y="630" width="10" height="10" as="geometry" />
        </mxCell>
        <mxCell id="XPyX1MKlA9ATD1nAIHYy-7" style="edgeStyle=orthogonalEdgeStyle;rounded=0;orthogonalLoop=1;jettySize=auto;html=1;exitX=1;exitY=0.5;exitDx=0;exitDy=0;entryX=-0.01;entryY=0.259;entryDx=0;entryDy=0;entryPerimeter=0;" edge="1" parent="1" source="EKfL-BwjNIBpNO0MJgjR-47" target="XPyX1MKlA9ATD1nAIHYy-1">
          <mxGeometry relative="1" as="geometry" />
        </mxCell>
        <mxCell id="EKfL-BwjNIBpNO0MJgjR-47" value="tag1" style="rounded=0;whiteSpace=wrap;html=1;fillColor=#dae8fc;strokeColor=#6c8ebf;" parent="1" vertex="1">
          <mxGeometry x="530" y="640" width="30" height="80" as="geometry" />
        </mxCell>
        <mxCell id="EKfL-BwjNIBpNO0MJgjR-48" value="" style="triangle;whiteSpace=wrap;html=1;rotation=-90;fillColor=#dae8fc;strokeColor=#6c8ebf;" parent="1" vertex="1">
          <mxGeometry x="540" y="710" width="10" height="10" as="geometry" />
        </mxCell>
        <mxCell id="EKfL-BwjNIBpNO0MJgjR-49" value="" style="rounded=0;whiteSpace=wrap;html=1;fillColor=#dae8fc;strokeColor=#6c8ebf;" parent="1" vertex="1">
          <mxGeometry x="530" y="760" width="30" height="80" as="geometry" />
        </mxCell>
        <mxCell id="EKfL-BwjNIBpNO0MJgjR-50" value="" style="triangle;whiteSpace=wrap;html=1;rotation=-90;fillColor=#dae8fc;strokeColor=#6c8ebf;" parent="1" vertex="1">
          <mxGeometry x="540" y="830" width="10" height="10" as="geometry" />
        </mxCell>
        <mxCell id="EKfL-BwjNIBpNO0MJgjR-51" value="" style="rounded=0;whiteSpace=wrap;html=1;fillColor=#dae8fc;strokeColor=#6c8ebf;" parent="1" vertex="1">
          <mxGeometry x="530" y="840" width="30" height="80" as="geometry" />
        </mxCell>
        <mxCell id="EKfL-BwjNIBpNO0MJgjR-52" value="" style="triangle;whiteSpace=wrap;html=1;rotation=-90;fillColor=#dae8fc;strokeColor=#6c8ebf;" parent="1" vertex="1">
          <mxGeometry x="540" y="910" width="10" height="10" as="geometry" />
        </mxCell>
        <mxCell id="EKfL-BwjNIBpNO0MJgjR-73" style="edgeStyle=orthogonalEdgeStyle;rounded=0;orthogonalLoop=1;jettySize=auto;html=1;exitX=1;exitY=0.5;exitDx=0;exitDy=0;entryX=0;entryY=0.5;entryDx=0;entryDy=0;" parent="1" source="EKfL-BwjNIBpNO0MJgjR-149" target="EKfL-BwjNIBpNO0MJgjR-71" edge="1">
          <mxGeometry relative="1" as="geometry">
            <mxPoint x="395" y="1520" as="sourcePoint" />
            <Array as="points">
              <mxPoint x="260" y="1480" />
              <mxPoint x="260" y="1370" />
              <mxPoint x="490" y="1370" />
              <mxPoint x="490" y="1000" />
            </Array>
          </mxGeometry>
        </mxCell>
        <mxCell id="EKfL-BwjNIBpNO0MJgjR-74" style="edgeStyle=orthogonalEdgeStyle;rounded=0;orthogonalLoop=1;jettySize=auto;html=1;exitX=1;exitY=0.5;exitDx=0;exitDy=0;entryX=0.75;entryY=1;entryDx=0;entryDy=0;" parent="1" source="EKfL-BwjNIBpNO0MJgjR-149" target="EKfL-BwjNIBpNO0MJgjR-4" edge="1">
          <mxGeometry relative="1" as="geometry">
            <mxPoint x="395" y="1520" as="sourcePoint" />
            <mxPoint x="260" y="1080" as="targetPoint" />
            <Array as="points">
              <mxPoint x="260" y="1480" />
            </Array>
          </mxGeometry>
        </mxCell>
        <mxCell id="XPyX1MKlA9ATD1nAIHYy-4" style="edgeStyle=orthogonalEdgeStyle;rounded=0;orthogonalLoop=1;jettySize=auto;html=1;exitX=1;exitY=0.5;exitDx=0;exitDy=0;entryX=-0.009;entryY=0.442;entryDx=0;entryDy=0;entryPerimeter=0;" edge="1" parent="1" source="EKfL-BwjNIBpNO0MJgjR-71" target="XPyX1MKlA9ATD1nAIHYy-1">
          <mxGeometry relative="1" as="geometry" />
        </mxCell>
        <mxCell id="EKfL-BwjNIBpNO0MJgjR-71" value="dest tag" style="rounded=0;whiteSpace=wrap;html=1;fillColor=#dae8fc;strokeColor=#6c8ebf;horizontal=0;" parent="1" vertex="1">
          <mxGeometry x="530" y="960" width="30" height="80" as="geometry" />
        </mxCell>
        <mxCell id="EKfL-BwjNIBpNO0MJgjR-72" value="" style="triangle;whiteSpace=wrap;html=1;rotation=-90;fillColor=#dae8fc;strokeColor=#6c8ebf;" parent="1" vertex="1">
          <mxGeometry x="540" y="1030" width="10" height="10" as="geometry" />
        </mxCell>
        <mxCell id="EKfL-BwjNIBpNO0MJgjR-118" style="edgeStyle=orthogonalEdgeStyle;rounded=0;orthogonalLoop=1;jettySize=auto;html=1;exitX=1;exitY=0.5;exitDx=0;exitDy=0;entryX=0.5;entryY=1;entryDx=0;entryDy=0;" parent="1" source="EKfL-BwjNIBpNO0MJgjR-96" target="EKfL-BwjNIBpNO0MJgjR-99" edge="1">
          <mxGeometry relative="1" as="geometry">
            <mxPoint x="-640" y="1810" as="targetPoint" />
            <Array as="points">
              <mxPoint x="-440" y="1720" />
              <mxPoint x="-440" y="1780" />
              <mxPoint x="-670" y="1780" />
            </Array>
          </mxGeometry>
        </mxCell>
        <mxCell id="7qlLy7Mz_lEwMJBJuUpn-13" style="edgeStyle=orthogonalEdgeStyle;rounded=0;orthogonalLoop=1;jettySize=auto;html=1;exitX=1;exitY=0.5;exitDx=0;exitDy=0;entryX=1;entryY=0.25;entryDx=0;entryDy=0;" parent="1" source="EKfL-BwjNIBpNO0MJgjR-96" target="7qlLy7Mz_lEwMJBJuUpn-11" edge="1">
          <mxGeometry relative="1" as="geometry">
            <Array as="points">
              <mxPoint x="-440" y="1720" />
              <mxPoint x="-440" y="1930" />
              <mxPoint x="170" y="1930" />
              <mxPoint x="170" y="1980" />
            </Array>
          </mxGeometry>
        </mxCell>
        <mxCell id="XPyX1MKlA9ATD1nAIHYy-23" style="edgeStyle=orthogonalEdgeStyle;rounded=0;orthogonalLoop=1;jettySize=auto;html=1;exitX=1;exitY=0.5;exitDx=0;exitDy=0;" edge="1" parent="1" source="EKfL-BwjNIBpNO0MJgjR-96" target="XPyX1MKlA9ATD1nAIHYy-20">
          <mxGeometry relative="1" as="geometry">
            <Array as="points">
              <mxPoint x="-440" y="1720" />
              <mxPoint x="-440" y="2310" />
              <mxPoint x="1970" y="2310" />
            </Array>
          </mxGeometry>
        </mxCell>
        <mxCell id="XPyX1MKlA9ATD1nAIHYy-24" style="edgeStyle=orthogonalEdgeStyle;rounded=0;orthogonalLoop=1;jettySize=auto;html=1;exitX=1;exitY=0.5;exitDx=0;exitDy=0;entryX=0.5;entryY=1;entryDx=0;entryDy=0;" edge="1" parent="1" source="EKfL-BwjNIBpNO0MJgjR-96" target="XPyX1MKlA9ATD1nAIHYy-19">
          <mxGeometry relative="1" as="geometry">
            <Array as="points">
              <mxPoint x="-440" y="1720" />
              <mxPoint x="-440" y="2310" />
              <mxPoint x="1970" y="2310" />
            </Array>
          </mxGeometry>
        </mxCell>
        <mxCell id="EKfL-BwjNIBpNO0MJgjR-96" value="tail" style="rounded=0;whiteSpace=wrap;html=1;fillColor=#dae8fc;strokeColor=#6c8ebf;horizontal=0;" parent="1" vertex="1">
          <mxGeometry x="-490.09000000000003" y="1680" width="30" height="80" as="geometry" />
        </mxCell>
        <mxCell id="EKfL-BwjNIBpNO0MJgjR-97" value="" style="triangle;whiteSpace=wrap;html=1;rotation=-90;fillColor=#dae8fc;strokeColor=#6c8ebf;" parent="1" vertex="1">
          <mxGeometry x="-480.09000000000003" y="1750" width="10" height="10" as="geometry" />
        </mxCell>
        <mxCell id="EKfL-BwjNIBpNO0MJgjR-119" style="edgeStyle=orthogonalEdgeStyle;rounded=0;orthogonalLoop=1;jettySize=auto;html=1;exitX=1;exitY=0.5;exitDx=0;exitDy=0;entryX=0;entryY=0.5;entryDx=0;entryDy=0;" parent="1" source="EKfL-BwjNIBpNO0MJgjR-99" target="EKfL-BwjNIBpNO0MJgjR-96" edge="1">
          <mxGeometry relative="1" as="geometry">
            <Array as="points">
              <mxPoint x="-620" y="1720" />
              <mxPoint x="-620" y="1720" />
            </Array>
          </mxGeometry>
        </mxCell>
        <mxCell id="EKfL-BwjNIBpNO0MJgjR-120" style="edgeStyle=orthogonalEdgeStyle;rounded=0;orthogonalLoop=1;jettySize=auto;html=1;exitX=1;exitY=0.5;exitDx=0;exitDy=0;entryX=0;entryY=0.5;entryDx=0;entryDy=0;" parent="1" source="EKfL-BwjNIBpNO0MJgjR-99" target="EKfL-BwjNIBpNO0MJgjR-101" edge="1">
          <mxGeometry relative="1" as="geometry">
            <Array as="points">
              <mxPoint x="-570" y="1720" />
              <mxPoint x="-570" y="1560" />
            </Array>
          </mxGeometry>
        </mxCell>
        <mxCell id="EKfL-BwjNIBpNO0MJgjR-176" style="edgeStyle=orthogonalEdgeStyle;rounded=0;orthogonalLoop=1;jettySize=auto;html=1;exitX=1;exitY=0.5;exitDx=0;exitDy=0;entryX=0;entryY=0.5;entryDx=0;entryDy=0;" parent="1" source="EKfL-BwjNIBpNO0MJgjR-99" target="EKfL-BwjNIBpNO0MJgjR-174" edge="1">
          <mxGeometry x="-0.0909" y="-15" relative="1" as="geometry">
            <Array as="points">
              <mxPoint x="-650" y="1720" />
              <mxPoint x="-570" y="1720" />
              <mxPoint x="-570" y="1640" />
            </Array>
            <mxPoint as="offset" />
          </mxGeometry>
        </mxCell>
        <mxCell id="EKfL-BwjNIBpNO0MJgjR-99" value="++" style="rounded=0;whiteSpace=wrap;html=1;fillColor=#d5e8d4;strokeColor=#82b366;" parent="1" vertex="1">
          <mxGeometry x="-690.09" y="1700" width="40" height="40" as="geometry" />
        </mxCell>
        <mxCell id="EKfL-BwjNIBpNO0MJgjR-100" value="ROB&lt;br&gt;rd" style="rounded=0;whiteSpace=wrap;html=1;fillColor=#f5f5f5;fontColor=#333333;strokeColor=#666666;" parent="1" vertex="1">
          <mxGeometry x="-460.09000000000003" y="1520" width="80" height="80" as="geometry" />
        </mxCell>
        <mxCell id="EKfL-BwjNIBpNO0MJgjR-101" value="" style="rounded=0;whiteSpace=wrap;html=1;fillColor=#dae8fc;strokeColor=#6c8ebf;" parent="1" vertex="1">
          <mxGeometry x="-490.09000000000003" y="1520" width="30" height="80" as="geometry" />
        </mxCell>
        <mxCell id="EKfL-BwjNIBpNO0MJgjR-102" value="" style="triangle;whiteSpace=wrap;html=1;rotation=-90;fillColor=#dae8fc;strokeColor=#6c8ebf;" parent="1" vertex="1">
          <mxGeometry x="-480.09000000000003" y="1590" width="10" height="10" as="geometry" />
        </mxCell>
        <mxCell id="EKfL-BwjNIBpNO0MJgjR-121" style="edgeStyle=orthogonalEdgeStyle;rounded=0;orthogonalLoop=1;jettySize=auto;html=1;exitX=1;exitY=0.5;exitDx=0;exitDy=0;entryX=0.75;entryY=1;entryDx=0;entryDy=0;" parent="1" source="EKfL-BwjNIBpNO0MJgjR-96" target="EKfL-BwjNIBpNO0MJgjR-7" edge="1">
          <mxGeometry relative="1" as="geometry">
            <mxPoint x="-80.09000000000003" y="1719.8571428571427" as="targetPoint" />
            <Array as="points">
              <mxPoint x="-60" y="1720" />
              <mxPoint x="-60" y="830" />
              <mxPoint x="260" y="830" />
            </Array>
            <mxPoint x="-270.09000000000015" y="1720" as="sourcePoint" />
          </mxGeometry>
        </mxCell>
        <mxCell id="7qlLy7Mz_lEwMJBJuUpn-25" style="edgeStyle=orthogonalEdgeStyle;rounded=0;orthogonalLoop=1;jettySize=auto;html=1;fontSize=43;entryX=0;entryY=0.5;entryDx=0;entryDy=0;" parent="1" target="EKfL-BwjNIBpNO0MJgjR-132" edge="1">
          <mxGeometry relative="1" as="geometry">
            <mxPoint x="-250" y="290" as="sourcePoint" />
            <mxPoint x="170" y="290" as="targetPoint" />
          </mxGeometry>
        </mxCell>
        <mxCell id="EKfL-BwjNIBpNO0MJgjR-131" style="edgeStyle=orthogonalEdgeStyle;rounded=0;orthogonalLoop=1;jettySize=auto;html=1;exitX=1;exitY=0.5;exitDx=0;exitDy=0;entryX=0;entryY=0.5;entryDx=0;entryDy=0;" parent="1" source="EKfL-BwjNIBpNO0MJgjR-132" target="EKfL-BwjNIBpNO0MJgjR-133" edge="1">
          <mxGeometry relative="1" as="geometry" />
        </mxCell>
        <mxCell id="EKfL-BwjNIBpNO0MJgjR-132" value="decode" style="rounded=0;whiteSpace=wrap;html=1;fillColor=#d5e8d4;strokeColor=#82b366;" parent="1" vertex="1">
          <mxGeometry x="290" y="250" width="160" height="80" as="geometry" />
        </mxCell>
        <mxCell id="XPyX1MKlA9ATD1nAIHYy-9" style="edgeStyle=orthogonalEdgeStyle;rounded=0;orthogonalLoop=1;jettySize=auto;html=1;exitX=1;exitY=0.5;exitDx=0;exitDy=0;entryX=-0.011;entryY=0.034;entryDx=0;entryDy=0;entryPerimeter=0;" edge="1" parent="1" source="EKfL-BwjNIBpNO0MJgjR-133" target="XPyX1MKlA9ATD1nAIHYy-1">
          <mxGeometry relative="1" as="geometry" />
        </mxCell>
        <mxCell id="EKfL-BwjNIBpNO0MJgjR-133" value="op" style="rounded=0;whiteSpace=wrap;html=1;fillColor=#dae8fc;strokeColor=#6c8ebf;" parent="1" vertex="1">
          <mxGeometry x="530" y="250" width="30" height="80" as="geometry" />
        </mxCell>
        <mxCell id="EKfL-BwjNIBpNO0MJgjR-134" value="" style="triangle;whiteSpace=wrap;html=1;rotation=-90;fillColor=#dae8fc;strokeColor=#6c8ebf;" parent="1" vertex="1">
          <mxGeometry x="540" y="320" width="10" height="10" as="geometry" />
        </mxCell>
        <mxCell id="EKfL-BwjNIBpNO0MJgjR-145" style="edgeStyle=orthogonalEdgeStyle;rounded=0;orthogonalLoop=1;jettySize=auto;html=1;exitX=1;exitY=0.5;exitDx=0;exitDy=0;entryX=0.25;entryY=1;entryDx=0;entryDy=0;" parent="1" target="EKfL-BwjNIBpNO0MJgjR-4" edge="1">
          <mxGeometry relative="1" as="geometry">
            <mxPoint x="220" y="1080" as="targetPoint" />
            <mxPoint x="200" y="1170" as="sourcePoint" />
          </mxGeometry>
        </mxCell>
        <mxCell id="EKfL-BwjNIBpNO0MJgjR-160" style="edgeStyle=orthogonalEdgeStyle;rounded=0;orthogonalLoop=1;jettySize=auto;html=1;exitX=1;exitY=0.5;exitDx=0;exitDy=0;entryX=0.25;entryY=0;entryDx=0;entryDy=0;" parent="1" target="EKfL-BwjNIBpNO0MJgjR-100" edge="1">
          <mxGeometry relative="1" as="geometry">
            <mxPoint x="200" y="1170" as="sourcePoint" />
            <Array as="points">
              <mxPoint x="200" y="1270" />
              <mxPoint x="-440" y="1270" />
            </Array>
          </mxGeometry>
        </mxCell>
        <mxCell id="Qv8bskhtYxNWibmQk5ua-13" style="edgeStyle=orthogonalEdgeStyle;rounded=0;orthogonalLoop=1;jettySize=auto;html=1;entryX=0.25;entryY=1;entryDx=0;entryDy=0;" parent="1" target="EKfL-BwjNIBpNO0MJgjR-2" edge="1">
          <mxGeometry relative="1" as="geometry">
            <Array as="points">
              <mxPoint x="300" y="1170" />
              <mxPoint x="300" y="630" />
              <mxPoint x="220" y="630" />
            </Array>
            <mxPoint x="-320" y="1170" as="sourcePoint" />
          </mxGeometry>
        </mxCell>
        <mxCell id="EKfL-BwjNIBpNO0MJgjR-146" value="rs0" style="text;html=1;align=center;verticalAlign=middle;resizable=0;points=[];autosize=1;strokeColor=none;fillColor=none;" parent="1" vertex="1">
          <mxGeometry x="-310.09000000000003" y="465" width="40" height="30" as="geometry" />
        </mxCell>
        <mxCell id="EKfL-BwjNIBpNO0MJgjR-147" value="rs1" style="text;html=1;align=center;verticalAlign=middle;resizable=0;points=[];autosize=1;strokeColor=none;fillColor=none;" parent="1" vertex="1">
          <mxGeometry x="-310.09000000000003" y="545" width="40" height="30" as="geometry" />
        </mxCell>
        <mxCell id="EKfL-BwjNIBpNO0MJgjR-148" value="rd" style="text;html=1;align=center;verticalAlign=middle;resizable=0;points=[];autosize=1;strokeColor=none;fillColor=none;" parent="1" vertex="1">
          <mxGeometry x="-370" y="1150" width="30" height="30" as="geometry" />
        </mxCell>
        <mxCell id="EKfL-BwjNIBpNO0MJgjR-152" style="edgeStyle=orthogonalEdgeStyle;rounded=0;orthogonalLoop=1;jettySize=auto;html=1;exitX=1;exitY=0.5;exitDx=0;exitDy=0;entryX=1;entryY=0.5;entryDx=0;entryDy=0;" parent="1" source="EKfL-BwjNIBpNO0MJgjR-149" target="EKfL-BwjNIBpNO0MJgjR-151" edge="1">
          <mxGeometry relative="1" as="geometry" />
        </mxCell>
        <mxCell id="EKfL-BwjNIBpNO0MJgjR-161" style="edgeStyle=orthogonalEdgeStyle;rounded=0;orthogonalLoop=1;jettySize=auto;html=1;exitX=1;exitY=0.5;exitDx=0;exitDy=0;entryX=0.75;entryY=0;entryDx=0;entryDy=0;" parent="1" source="EKfL-BwjNIBpNO0MJgjR-149" target="EKfL-BwjNIBpNO0MJgjR-100" edge="1">
          <mxGeometry relative="1" as="geometry">
            <Array as="points">
              <mxPoint x="220" y="1480" />
              <mxPoint x="220" y="1380" />
              <mxPoint x="-400" y="1380" />
            </Array>
          </mxGeometry>
        </mxCell>
        <mxCell id="7qlLy7Mz_lEwMJBJuUpn-12" style="edgeStyle=orthogonalEdgeStyle;rounded=0;orthogonalLoop=1;jettySize=auto;html=1;exitX=1;exitY=0.5;exitDx=0;exitDy=0;entryX=1;entryY=0.75;entryDx=0;entryDy=0;" parent="1" source="EKfL-BwjNIBpNO0MJgjR-149" target="7qlLy7Mz_lEwMJBJuUpn-11" edge="1">
          <mxGeometry relative="1" as="geometry" />
        </mxCell>
        <mxCell id="Qv8bskhtYxNWibmQk5ua-128" style="edgeStyle=orthogonalEdgeStyle;rounded=0;orthogonalLoop=1;jettySize=auto;html=1;exitX=1;exitY=0.5;exitDx=0;exitDy=0;entryX=0;entryY=0.5;entryDx=0;entryDy=0;" parent="1" source="EKfL-BwjNIBpNO0MJgjR-149" target="Qv8bskhtYxNWibmQk5ua-127" edge="1">
          <mxGeometry relative="1" as="geometry" />
        </mxCell>
        <mxCell id="EKfL-BwjNIBpNO0MJgjR-149" value="head" style="rounded=0;whiteSpace=wrap;html=1;fillColor=#dae8fc;strokeColor=#6c8ebf;horizontal=0;" parent="1" vertex="1">
          <mxGeometry x="170" y="1440" width="30" height="80" as="geometry" />
        </mxCell>
        <mxCell id="EKfL-BwjNIBpNO0MJgjR-150" value="" style="triangle;whiteSpace=wrap;html=1;rotation=-90;fillColor=#dae8fc;strokeColor=#6c8ebf;" parent="1" vertex="1">
          <mxGeometry x="180" y="1510" width="10" height="10" as="geometry" />
        </mxCell>
        <mxCell id="EKfL-BwjNIBpNO0MJgjR-153" style="edgeStyle=orthogonalEdgeStyle;rounded=0;orthogonalLoop=1;jettySize=auto;html=1;exitX=0;exitY=0.5;exitDx=0;exitDy=0;entryX=0;entryY=0.5;entryDx=0;entryDy=0;" parent="1" source="EKfL-BwjNIBpNO0MJgjR-151" target="EKfL-BwjNIBpNO0MJgjR-149" edge="1">
          <mxGeometry relative="1" as="geometry" />
        </mxCell>
        <mxCell id="EKfL-BwjNIBpNO0MJgjR-151" value="++" style="rounded=0;whiteSpace=wrap;html=1;fillColor=#d5e8d4;strokeColor=#82b366;" parent="1" vertex="1">
          <mxGeometry x="160" y="1545" width="40" height="40" as="geometry" />
        </mxCell>
        <mxCell id="EKfL-BwjNIBpNO0MJgjR-159" style="edgeStyle=orthogonalEdgeStyle;rounded=0;orthogonalLoop=1;jettySize=auto;html=1;entryX=0.25;entryY=1;entryDx=0;entryDy=0;exitX=1;exitY=0.5;exitDx=0;exitDy=0;" parent="1" source="EKfL-BwjNIBpNO0MJgjR-100" target="EKfL-BwjNIBpNO0MJgjR-7" edge="1">
          <mxGeometry relative="1" as="geometry">
            <Array as="points">
              <mxPoint x="-80" y="1560" />
              <mxPoint x="-80" y="820" />
              <mxPoint x="220" y="820" />
            </Array>
            <mxPoint x="-80" y="1340" as="sourcePoint" />
          </mxGeometry>
        </mxCell>
        <mxCell id="EKfL-BwjNIBpNO0MJgjR-182" style="edgeStyle=orthogonalEdgeStyle;rounded=0;orthogonalLoop=1;jettySize=auto;html=1;entryX=0.5;entryY=1;entryDx=0;entryDy=0;exitX=1;exitY=0.5;exitDx=0;exitDy=0;" parent="1" target="EKfL-BwjNIBpNO0MJgjR-173" edge="1" source="XPyX1MKlA9ATD1nAIHYy-29">
          <mxGeometry relative="1" as="geometry">
            <mxPoint x="710" y="1850" as="sourcePoint" />
            <Array as="points">
              <mxPoint x="1830" y="840" />
              <mxPoint x="1590" y="840" />
              <mxPoint x="1590" y="2030" />
              <mxPoint x="510" y="2030" />
              <mxPoint x="510" y="1700" />
              <mxPoint x="-420" y="1700" />
            </Array>
          </mxGeometry>
        </mxCell>
        <mxCell id="EKfL-BwjNIBpNO0MJgjR-173" value="has&lt;br&gt;finished" style="rounded=0;whiteSpace=wrap;html=1;fillColor=#fff2cc;strokeColor=#d6b656;" parent="1" vertex="1">
          <mxGeometry x="-460.0899999999999" y="1600" width="80" height="80" as="geometry" />
        </mxCell>
        <mxCell id="EKfL-BwjNIBpNO0MJgjR-174" value="" style="rounded=0;whiteSpace=wrap;html=1;fillColor=#dae8fc;strokeColor=#6c8ebf;" parent="1" vertex="1">
          <mxGeometry x="-490.0899999999999" y="1600" width="30" height="80" as="geometry" />
        </mxCell>
        <mxCell id="EKfL-BwjNIBpNO0MJgjR-175" value="" style="triangle;whiteSpace=wrap;html=1;rotation=-90;fillColor=#dae8fc;strokeColor=#6c8ebf;" parent="1" vertex="1">
          <mxGeometry x="-480.0899999999999" y="1670" width="10" height="10" as="geometry" />
        </mxCell>
        <mxCell id="XPyX1MKlA9ATD1nAIHYy-12" style="edgeStyle=orthogonalEdgeStyle;rounded=0;orthogonalLoop=1;jettySize=auto;html=1;exitX=1.007;exitY=0.494;exitDx=0;exitDy=0;entryX=0;entryY=0.5;entryDx=0;entryDy=0;exitPerimeter=0;" edge="1" parent="1" source="XPyX1MKlA9ATD1nAIHYy-1" target="7qlLy7Mz_lEwMJBJuUpn-1">
          <mxGeometry relative="1" as="geometry" />
        </mxCell>
        <mxCell id="XPyX1MKlA9ATD1nAIHYy-32" style="edgeStyle=orthogonalEdgeStyle;rounded=0;orthogonalLoop=1;jettySize=auto;html=1;exitX=0.5;exitY=0;exitDx=0;exitDy=0;" edge="1" parent="1" source="7qlLy7Mz_lEwMJBJuUpn-1">
          <mxGeometry relative="1" as="geometry">
            <mxPoint x="1465.1999999999998" y="70" as="targetPoint" />
          </mxGeometry>
        </mxCell>
        <mxCell id="7qlLy7Mz_lEwMJBJuUpn-1" value="Execution" style="rounded=0;whiteSpace=wrap;html=1;fillColor=#f5f5f5;fontColor=#333333;strokeColor=#666666;" parent="1" vertex="1">
          <mxGeometry x="1360" y="220" width="210" height="1740" as="geometry" />
        </mxCell>
        <mxCell id="7qlLy7Mz_lEwMJBJuUpn-10" value="result bus" style="text;html=1;align=center;verticalAlign=middle;resizable=0;points=[];autosize=1;strokeColor=none;fillColor=none;" parent="1" vertex="1">
          <mxGeometry x="1700" y="800" width="80" height="30" as="geometry" />
        </mxCell>
        <mxCell id="7qlLy7Mz_lEwMJBJuUpn-14" style="edgeStyle=orthogonalEdgeStyle;rounded=0;orthogonalLoop=1;jettySize=auto;html=1;exitX=0;exitY=0.25;exitDx=0;exitDy=0;entryX=0.5;entryY=1;entryDx=0;entryDy=0;" parent="1" source="7qlLy7Mz_lEwMJBJuUpn-11" target="EKfL-BwjNIBpNO0MJgjR-151" edge="1">
          <mxGeometry relative="1" as="geometry" />
        </mxCell>
        <mxCell id="7qlLy7Mz_lEwMJBJuUpn-15" style="edgeStyle=orthogonalEdgeStyle;rounded=0;orthogonalLoop=1;jettySize=auto;html=1;exitX=0;exitY=0.75;exitDx=0;exitDy=0;entryX=0;entryY=0.5;entryDx=0;entryDy=0;" parent="1" source="7qlLy7Mz_lEwMJBJuUpn-11" target="EKfL-BwjNIBpNO0MJgjR-99" edge="1">
          <mxGeometry relative="1" as="geometry" />
        </mxCell>
        <mxCell id="7qlLy7Mz_lEwMJBJuUpn-16" style="edgeStyle=orthogonalEdgeStyle;rounded=0;orthogonalLoop=1;jettySize=auto;html=1;exitX=0.25;exitY=1;exitDx=0;exitDy=0;" parent="1" source="7qlLy7Mz_lEwMJBJuUpn-11" edge="1">
          <mxGeometry relative="1" as="geometry">
            <mxPoint x="-30.476190476190368" y="2100" as="targetPoint" />
          </mxGeometry>
        </mxCell>
        <mxCell id="7qlLy7Mz_lEwMJBJuUpn-11" value="head/tail control" style="rounded=0;whiteSpace=wrap;html=1;fillColor=#e1d5e7;strokeColor=#9673a6;" parent="1" vertex="1">
          <mxGeometry x="-80.09" y="1960" width="200.09" height="80" as="geometry" />
        </mxCell>
        <mxCell id="7qlLy7Mz_lEwMJBJuUpn-17" value="full=stall" style="text;html=1;align=center;verticalAlign=middle;resizable=0;points=[];autosize=1;strokeColor=none;fillColor=none;fontSize=30;" parent="1" vertex="1">
          <mxGeometry x="-100" y="2090" width="130" height="50" as="geometry" />
        </mxCell>
        <mxCell id="7qlLy7Mz_lEwMJBJuUpn-18" value="val tag0 = if(isSpec[rs0]) arch2spec[rs0] else arch2state[rs0]&lt;br&gt;val tag1 = if(isSpec[rs1]) arch2spec[rs1] else arch2state[rs1]&lt;br&gt;val destTag = allocate()&lt;br&gt;&lt;br&gt;val isReady0 = hasFinished[tag0]&lt;br&gt;val isReady1 = hasFinished[tag1]&lt;br&gt;val data0 = ROB.data[tag0]&lt;br&gt;val data1 = ROB.data[tag1]&lt;br&gt;val control = decode(instruction)&lt;br&gt;&lt;br&gt;arch2spec[rd] = destTag&lt;br&gt;ROB.rd[destTag] = rd" style="text;html=1;align=left;verticalAlign=middle;resizable=0;points=[];autosize=1;strokeColor=none;fillColor=none;fontSize=40;" parent="1" vertex="1">
          <mxGeometry x="-2760" y="100" width="1090" height="590" as="geometry" />
        </mxCell>
        <mxCell id="7qlLy7Mz_lEwMJBJuUpn-20" value="Decoding &amp;amp; Renaming" style="text;html=1;align=center;verticalAlign=middle;resizable=0;points=[];autosize=1;strokeColor=none;fillColor=none;fontSize=43;fontStyle=1" parent="1" vertex="1">
          <mxGeometry x="-2760" y="-40" width="480" height="70" as="geometry" />
        </mxCell>
        <mxCell id="7qlLy7Mz_lEwMJBJuUpn-21" value="" style="rounded=1;whiteSpace=wrap;html=1;fontSize=40;fillColor=#f5f5f5;fontColor=#333333;strokeColor=#666666;" parent="1" vertex="1">
          <mxGeometry x="-2910" y="790" width="1340.09" height="750" as="geometry" />
        </mxCell>
        <mxCell id="7qlLy7Mz_lEwMJBJuUpn-22" value="val rd = ROB.rd[tail]&lt;br&gt;val hasFinished = hasFinished[tail]&lt;br&gt;val newestAlias = arch2spec[rd]&lt;br&gt;&lt;br&gt;if(hasFinished) {&lt;br&gt;&amp;nbsp; arch2state[rd] = tail&lt;br&gt;&amp;nbsp; isSpeculative[rd] = tail != newestAlias&lt;br&gt;&amp;nbsp; if(!empty) tail++&lt;br&gt;}" style="text;html=1;align=left;verticalAlign=middle;resizable=0;points=[];autosize=1;strokeColor=none;fillColor=none;fontSize=40;" parent="1" vertex="1">
          <mxGeometry x="-2770" y="1010" width="710" height="450" as="geometry" />
        </mxCell>
        <mxCell id="7qlLy7Mz_lEwMJBJuUpn-23" value="Retiring" style="text;html=1;align=center;verticalAlign=middle;resizable=0;points=[];autosize=1;strokeColor=none;fillColor=none;fontSize=43;fontStyle=1" parent="1" vertex="1">
          <mxGeometry x="-2625" y="800" width="190" height="70" as="geometry" />
        </mxCell>
        <mxCell id="7qlLy7Mz_lEwMJBJuUpn-26" value="instruction" style="text;html=1;align=center;verticalAlign=middle;resizable=0;points=[];autosize=1;strokeColor=none;fillColor=none;fontSize=12;" parent="1" vertex="1">
          <mxGeometry x="-340" y="275" width="80" height="30" as="geometry" />
        </mxCell>
        <mxCell id="7qlLy7Mz_lEwMJBJuUpn-27" value="" style="endArrow=none;html=1;rounded=0;fontSize=12;" parent="1" edge="1">
          <mxGeometry width="50" height="50" relative="1" as="geometry">
            <mxPoint x="-250" y="480" as="sourcePoint" />
            <mxPoint y="480" as="targetPoint" />
          </mxGeometry>
        </mxCell>
        <mxCell id="7qlLy7Mz_lEwMJBJuUpn-28" value="" style="endArrow=none;html=1;rounded=0;fontSize=12;" parent="1" edge="1">
          <mxGeometry width="50" height="50" relative="1" as="geometry">
            <mxPoint x="-250" y="560" as="sourcePoint" />
            <mxPoint y="560" as="targetPoint" />
          </mxGeometry>
        </mxCell>
        <mxCell id="XPyX1MKlA9ATD1nAIHYy-11" style="edgeStyle=orthogonalEdgeStyle;rounded=0;orthogonalLoop=1;jettySize=auto;html=1;exitX=1.008;exitY=0.293;exitDx=0;exitDy=0;entryX=0;entryY=0.5;entryDx=0;entryDy=0;exitPerimeter=0;" edge="1" parent="1" source="XPyX1MKlA9ATD1nAIHYy-1" target="Qv8bskhtYxNWibmQk5ua-6">
          <mxGeometry relative="1" as="geometry" />
        </mxCell>
        <mxCell id="Qv8bskhtYxNWibmQk5ua-6" value="" style="rounded=0;whiteSpace=wrap;html=1;fillColor=#dae8fc;strokeColor=#6c8ebf;" parent="1" vertex="1">
          <mxGeometry x="1140" y="700" width="30" height="80" as="geometry" />
        </mxCell>
        <mxCell id="Qv8bskhtYxNWibmQk5ua-7" value="" style="triangle;whiteSpace=wrap;html=1;rotation=-90;fillColor=#dae8fc;strokeColor=#6c8ebf;" parent="1" vertex="1">
          <mxGeometry x="1150" y="770" width="10" height="10" as="geometry" />
        </mxCell>
        <mxCell id="XPyX1MKlA9ATD1nAIHYy-10" style="edgeStyle=orthogonalEdgeStyle;rounded=0;orthogonalLoop=1;jettySize=auto;html=1;exitX=1.004;exitY=0.339;exitDx=0;exitDy=0;entryX=0;entryY=0.5;entryDx=0;entryDy=0;exitPerimeter=0;" edge="1" parent="1" source="XPyX1MKlA9ATD1nAIHYy-1" target="Qv8bskhtYxNWibmQk5ua-8">
          <mxGeometry relative="1" as="geometry" />
        </mxCell>
        <mxCell id="Qv8bskhtYxNWibmQk5ua-8" value="" style="rounded=0;whiteSpace=wrap;html=1;fillColor=#dae8fc;strokeColor=#6c8ebf;" parent="1" vertex="1">
          <mxGeometry x="1140" y="780" width="30" height="80" as="geometry" />
        </mxCell>
        <mxCell id="Qv8bskhtYxNWibmQk5ua-9" value="" style="triangle;whiteSpace=wrap;html=1;rotation=-90;fillColor=#dae8fc;strokeColor=#6c8ebf;" parent="1" vertex="1">
          <mxGeometry x="1150" y="850" width="10" height="10" as="geometry" />
        </mxCell>
        <mxCell id="Qv8bskhtYxNWibmQk5ua-11" value="1" style="text;html=1;align=center;verticalAlign=middle;resizable=0;points=[];autosize=1;strokeColor=none;fillColor=none;" parent="1" vertex="1">
          <mxGeometry x="275" y="604" width="30" height="30" as="geometry" />
        </mxCell>
        <mxCell id="Qv8bskhtYxNWibmQk5ua-14" value="23: br0 to 25 -&amp;gt; not taken&lt;br&gt;.&lt;br&gt;.&lt;br&gt;.&lt;br&gt;.&lt;br&gt;30: br1 to 35 -&amp;gt; not taken&lt;br&gt;.&lt;br&gt;.&lt;br&gt;.&lt;br&gt;br1 should have been taken" style="text;html=1;align=center;verticalAlign=middle;resizable=0;points=[];autosize=1;strokeColor=none;fillColor=none;" parent="1" vertex="1">
          <mxGeometry x="1804.91" y="2330" width="170" height="160" as="geometry" />
        </mxCell>
        <mxCell id="Qv8bskhtYxNWibmQk5ua-21" style="edgeStyle=orthogonalEdgeStyle;rounded=0;orthogonalLoop=1;jettySize=auto;html=1;exitX=0.5;exitY=1;exitDx=0;exitDy=0;entryX=0.86;entryY=1.027;entryDx=0;entryDy=0;entryPerimeter=0;" parent="1" source="Qv8bskhtYxNWibmQk5ua-15" target="Qv8bskhtYxNWibmQk5ua-20" edge="1">
          <mxGeometry relative="1" as="geometry" />
        </mxCell>
        <mxCell id="Qv8bskhtYxNWibmQk5ua-27" style="edgeStyle=orthogonalEdgeStyle;rounded=0;orthogonalLoop=1;jettySize=auto;html=1;exitX=0.5;exitY=0;exitDx=0;exitDy=0;entryX=0.5;entryY=0;entryDx=0;entryDy=0;" parent="1" target="Qv8bskhtYxNWibmQk5ua-15" edge="1">
          <mxGeometry relative="1" as="geometry">
            <mxPoint x="1809.8222807017544" y="2550" as="sourcePoint" />
          </mxGeometry>
        </mxCell>
        <mxCell id="Qv8bskhtYxNWibmQk5ua-15" value="23" style="rounded=0;whiteSpace=wrap;html=1;" parent="1" vertex="1">
          <mxGeometry x="1770" y="2630" width="79.91" height="80" as="geometry" />
        </mxCell>
        <mxCell id="Qv8bskhtYxNWibmQk5ua-23" style="edgeStyle=orthogonalEdgeStyle;rounded=0;orthogonalLoop=1;jettySize=auto;html=1;exitX=0.5;exitY=1;exitDx=0;exitDy=0;entryX=0.639;entryY=0.96;entryDx=0;entryDy=0;entryPerimeter=0;" parent="1" source="Qv8bskhtYxNWibmQk5ua-16" target="Qv8bskhtYxNWibmQk5ua-20" edge="1">
          <mxGeometry relative="1" as="geometry">
            <Array as="points">
              <mxPoint x="1929.91" y="2730" />
              <mxPoint x="2002.91" y="2730" />
            </Array>
          </mxGeometry>
        </mxCell>
        <mxCell id="Qv8bskhtYxNWibmQk5ua-28" style="edgeStyle=orthogonalEdgeStyle;rounded=0;orthogonalLoop=1;jettySize=auto;html=1;exitX=0.5;exitY=0;exitDx=0;exitDy=0;entryX=0.5;entryY=0;entryDx=0;entryDy=0;" parent="1" target="Qv8bskhtYxNWibmQk5ua-16" edge="1">
          <mxGeometry relative="1" as="geometry">
            <mxPoint x="1929.8222807017544" y="2550" as="sourcePoint" />
          </mxGeometry>
        </mxCell>
        <mxCell id="Qv8bskhtYxNWibmQk5ua-16" value="30" style="rounded=0;whiteSpace=wrap;html=1;" parent="1" vertex="1">
          <mxGeometry x="1890" y="2630" width="79.91" height="80" as="geometry" />
        </mxCell>
        <mxCell id="Qv8bskhtYxNWibmQk5ua-26" value="" style="edgeStyle=orthogonalEdgeStyle;rounded=0;orthogonalLoop=1;jettySize=auto;html=1;" parent="1" source="Qv8bskhtYxNWibmQk5ua-19" target="Qv8bskhtYxNWibmQk5ua-20" edge="1">
          <mxGeometry relative="1" as="geometry" />
        </mxCell>
        <mxCell id="Qv8bskhtYxNWibmQk5ua-19" value="cur map" style="rounded=0;whiteSpace=wrap;html=1;" parent="1" vertex="1">
          <mxGeometry x="1770" y="2780" width="120" height="60" as="geometry" />
        </mxCell>
        <mxCell id="Qv8bskhtYxNWibmQk5ua-20" value="" style="shape=trapezoid;perimeter=trapezoidPerimeter;whiteSpace=wrap;html=1;fixedSize=1;direction=west;" parent="1" vertex="1">
          <mxGeometry x="1959.91" y="2790" width="120" height="40" as="geometry" />
        </mxCell>
        <mxCell id="Qv8bskhtYxNWibmQk5ua-34" style="edgeStyle=orthogonalEdgeStyle;rounded=0;orthogonalLoop=1;jettySize=auto;html=1;exitX=0.5;exitY=1;exitDx=0;exitDy=0;" parent="1" source="Qv8bskhtYxNWibmQk5ua-32" target="Qv8bskhtYxNWibmQk5ua-20" edge="1">
          <mxGeometry relative="1" as="geometry" />
        </mxCell>
        <mxCell id="Qv8bskhtYxNWibmQk5ua-32" value="br2" style="rounded=0;whiteSpace=wrap;html=1;" parent="1" vertex="1">
          <mxGeometry x="2029.91" y="2630" width="79.91" height="80" as="geometry" />
        </mxCell>
        <mxCell id="Qv8bskhtYxNWibmQk5ua-35" style="edgeStyle=orthogonalEdgeStyle;rounded=0;orthogonalLoop=1;jettySize=auto;html=1;exitX=0.5;exitY=1;exitDx=0;exitDy=0;entryX=0.181;entryY=0.975;entryDx=0;entryDy=0;entryPerimeter=0;" parent="1" source="Qv8bskhtYxNWibmQk5ua-33" target="Qv8bskhtYxNWibmQk5ua-20" edge="1">
          <mxGeometry relative="1" as="geometry" />
        </mxCell>
        <mxCell id="Qv8bskhtYxNWibmQk5ua-33" value="br3" style="rounded=0;whiteSpace=wrap;html=1;" parent="1" vertex="1">
          <mxGeometry x="2170.91" y="2630" width="79.91" height="80" as="geometry" />
        </mxCell>
        <mxCell id="Qv8bskhtYxNWibmQk5ua-36" value="23: br0 -&amp;gt; not taken&lt;br&gt;.&lt;br&gt;.&lt;br&gt;.&lt;br&gt;.&lt;br&gt;30: br1 -&amp;gt; not taken&lt;br&gt;.&lt;br&gt;.&lt;br&gt;.&lt;br&gt;40: br0 was incorrect" style="text;html=1;align=center;verticalAlign=middle;resizable=0;points=[];autosize=1;strokeColor=none;fillColor=none;" parent="1" vertex="1">
          <mxGeometry x="2049.91" y="2330" width="130" height="160" as="geometry" />
        </mxCell>
        <mxCell id="Qv8bskhtYxNWibmQk5ua-39" style="edgeStyle=orthogonalEdgeStyle;rounded=0;orthogonalLoop=1;jettySize=auto;html=1;exitX=0.25;exitY=1;exitDx=0;exitDy=0;entryX=0.75;entryY=0;entryDx=0;entryDy=0;" parent="1" source="Qv8bskhtYxNWibmQk5ua-38" target="Qv8bskhtYxNWibmQk5ua-15" edge="1">
          <mxGeometry relative="1" as="geometry" />
        </mxCell>
        <mxCell id="Qv8bskhtYxNWibmQk5ua-38" value="mask" style="rounded=0;whiteSpace=wrap;html=1;" parent="1" vertex="1">
          <mxGeometry x="1959.91" y="2530" width="90.09" height="30" as="geometry" />
        </mxCell>
        <mxCell id="Qv8bskhtYxNWibmQk5ua-40" value="1111" style="text;html=1;align=center;verticalAlign=middle;resizable=0;points=[];autosize=1;strokeColor=none;fillColor=none;" parent="1" vertex="1">
          <mxGeometry x="2255" y="2455" width="50" height="30" as="geometry" />
        </mxCell>
        <mxCell id="Qv8bskhtYxNWibmQk5ua-41" value="0111" style="text;html=1;align=center;verticalAlign=middle;resizable=0;points=[];autosize=1;strokeColor=none;fillColor=none;" parent="1" vertex="1">
          <mxGeometry x="2255" y="2480" width="50" height="30" as="geometry" />
        </mxCell>
        <mxCell id="Qv8bskhtYxNWibmQk5ua-44" value="1111" style="text;html=1;align=center;verticalAlign=middle;resizable=0;points=[];autosize=1;strokeColor=none;fillColor=none;" parent="1" vertex="1">
          <mxGeometry x="2255" y="2510" width="50" height="30" as="geometry" />
        </mxCell>
        <mxCell id="Qv8bskhtYxNWibmQk5ua-45" value="1111" style="text;html=1;align=center;verticalAlign=middle;resizable=0;points=[];autosize=1;strokeColor=none;fillColor=none;" parent="1" vertex="1">
          <mxGeometry x="2320" y="2455" width="50" height="30" as="geometry" />
        </mxCell>
        <mxCell id="Qv8bskhtYxNWibmQk5ua-46" value="0111" style="text;html=1;align=center;verticalAlign=middle;resizable=0;points=[];autosize=1;strokeColor=none;fillColor=none;" parent="1" vertex="1">
          <mxGeometry x="2320" y="2480" width="50" height="30" as="geometry" />
        </mxCell>
        <mxCell id="Qv8bskhtYxNWibmQk5ua-47" value="1111" style="text;html=1;align=center;verticalAlign=middle;resizable=0;points=[];autosize=1;strokeColor=none;fillColor=none;" parent="1" vertex="1">
          <mxGeometry x="2320" y="2510" width="50" height="30" as="geometry" />
        </mxCell>
        <mxCell id="Qv8bskhtYxNWibmQk5ua-48" value="XX01" style="text;html=1;align=center;verticalAlign=middle;resizable=0;points=[];autosize=1;strokeColor=none;fillColor=none;" parent="1" vertex="1">
          <mxGeometry x="2320" y="2540" width="50" height="30" as="geometry" />
        </mxCell>
        <mxCell id="Qv8bskhtYxNWibmQk5ua-49" value="XXX1" style="text;html=1;align=center;verticalAlign=middle;resizable=0;points=[];autosize=1;strokeColor=none;fillColor=none;" parent="1" vertex="1">
          <mxGeometry x="2320" y="2570" width="50" height="30" as="geometry" />
        </mxCell>
        <mxCell id="Qv8bskhtYxNWibmQk5ua-50" value="delta" style="rounded=0;whiteSpace=wrap;html=1;" parent="1" vertex="1">
          <mxGeometry x="1860" y="2630" width="20" height="80" as="geometry" />
        </mxCell>
        <mxCell id="Qv8bskhtYxNWibmQk5ua-51" value="delta" style="rounded=0;whiteSpace=wrap;html=1;" parent="1" vertex="1">
          <mxGeometry x="1990" y="2630" width="20" height="80" as="geometry" />
        </mxCell>
        <mxCell id="Qv8bskhtYxNWibmQk5ua-52" value="delta" style="rounded=0;whiteSpace=wrap;html=1;" parent="1" vertex="1">
          <mxGeometry x="2125" y="2630" width="20" height="80" as="geometry" />
        </mxCell>
        <mxCell id="Qv8bskhtYxNWibmQk5ua-54" style="edgeStyle=orthogonalEdgeStyle;rounded=0;orthogonalLoop=1;jettySize=auto;html=1;exitX=1;exitY=0.5;exitDx=0;exitDy=0;entryX=0;entryY=0.5;entryDx=0;entryDy=0;" parent="1" source="Qv8bskhtYxNWibmQk5ua-53" target="Qv8bskhtYxNWibmQk5ua-15" edge="1">
          <mxGeometry relative="1" as="geometry">
            <Array as="points">
              <mxPoint x="2310" y="2670" />
              <mxPoint x="2310" y="2520" />
              <mxPoint x="1750" y="2520" />
              <mxPoint x="1750" y="2670" />
            </Array>
          </mxGeometry>
        </mxCell>
        <mxCell id="Qv8bskhtYxNWibmQk5ua-53" value="delta" style="rounded=0;whiteSpace=wrap;html=1;" parent="1" vertex="1">
          <mxGeometry x="2270" y="2630" width="20" height="80" as="geometry" />
        </mxCell>
        <mxCell id="Qv8bskhtYxNWibmQk5ua-60" style="edgeStyle=orthogonalEdgeStyle;rounded=0;orthogonalLoop=1;jettySize=auto;html=1;exitX=1;exitY=0.5;exitDx=0;exitDy=0;" parent="1" source="Qv8bskhtYxNWibmQk5ua-55" target="Qv8bskhtYxNWibmQk5ua-59" edge="1">
          <mxGeometry relative="1" as="geometry" />
        </mxCell>
        <mxCell id="Qv8bskhtYxNWibmQk5ua-130" style="edgeStyle=orthogonalEdgeStyle;rounded=0;orthogonalLoop=1;jettySize=auto;html=1;exitX=0.25;exitY=1;exitDx=0;exitDy=0;" parent="1" source="Qv8bskhtYxNWibmQk5ua-55" edge="1">
          <mxGeometry relative="1" as="geometry">
            <mxPoint x="1959.7894736842109" y="3200" as="targetPoint" />
          </mxGeometry>
        </mxCell>
        <mxCell id="Qv8bskhtYxNWibmQk5ua-131" style="edgeStyle=orthogonalEdgeStyle;rounded=0;orthogonalLoop=1;jettySize=auto;html=1;exitX=0.75;exitY=1;exitDx=0;exitDy=0;" parent="1" source="Qv8bskhtYxNWibmQk5ua-55" edge="1">
          <mxGeometry relative="1" as="geometry">
            <mxPoint x="2019.7894736842109" y="3200" as="targetPoint" />
          </mxGeometry>
        </mxCell>
        <mxCell id="Qv8bskhtYxNWibmQk5ua-55" value="arch2spec&lt;br&gt;map" style="rounded=0;whiteSpace=wrap;html=1;" parent="1" vertex="1">
          <mxGeometry x="1929.82" y="3005" width="120.09" height="120" as="geometry" />
        </mxCell>
        <mxCell id="Qv8bskhtYxNWibmQk5ua-65" style="edgeStyle=orthogonalEdgeStyle;rounded=0;orthogonalLoop=1;jettySize=auto;html=1;exitX=1;exitY=0.5;exitDx=0;exitDy=0;entryX=0.75;entryY=1;entryDx=0;entryDy=0;" parent="1" source="Qv8bskhtYxNWibmQk5ua-56" target="Qv8bskhtYxNWibmQk5ua-63" edge="1">
          <mxGeometry relative="1" as="geometry">
            <Array as="points">
              <mxPoint x="2400" y="3140" />
              <mxPoint x="2400" y="2890" />
              <mxPoint x="1975" y="2890" />
            </Array>
          </mxGeometry>
        </mxCell>
        <mxCell id="Qv8bskhtYxNWibmQk5ua-56" value="" style="rounded=0;whiteSpace=wrap;html=1;" parent="1" vertex="1">
          <mxGeometry x="2240" y="3080" width="120.09" height="120" as="geometry" />
        </mxCell>
        <mxCell id="Qv8bskhtYxNWibmQk5ua-64" style="edgeStyle=orthogonalEdgeStyle;rounded=0;orthogonalLoop=1;jettySize=auto;html=1;exitX=1;exitY=0.5;exitDx=0;exitDy=0;entryX=0.25;entryY=1;entryDx=0;entryDy=0;" parent="1" source="Qv8bskhtYxNWibmQk5ua-57" target="Qv8bskhtYxNWibmQk5ua-63" edge="1">
          <mxGeometry relative="1" as="geometry" />
        </mxCell>
        <mxCell id="Qv8bskhtYxNWibmQk5ua-57" value="snapshot0&lt;br&gt;(arch2spec map)" style="rounded=0;whiteSpace=wrap;html=1;" parent="1" vertex="1">
          <mxGeometry x="2240" y="2940" width="120.09" height="120" as="geometry" />
        </mxCell>
        <mxCell id="Qv8bskhtYxNWibmQk5ua-61" style="edgeStyle=orthogonalEdgeStyle;rounded=0;orthogonalLoop=1;jettySize=auto;html=1;exitX=0.25;exitY=1;exitDx=0;exitDy=0;entryX=0;entryY=0.5;entryDx=0;entryDy=0;" parent="1" source="Qv8bskhtYxNWibmQk5ua-59" target="Qv8bskhtYxNWibmQk5ua-56" edge="1">
          <mxGeometry relative="1" as="geometry" />
        </mxCell>
        <mxCell id="Qv8bskhtYxNWibmQk5ua-62" style="edgeStyle=orthogonalEdgeStyle;rounded=0;orthogonalLoop=1;jettySize=auto;html=1;exitX=0.75;exitY=1;exitDx=0;exitDy=0;entryX=0;entryY=0.5;entryDx=0;entryDy=0;" parent="1" source="Qv8bskhtYxNWibmQk5ua-59" target="Qv8bskhtYxNWibmQk5ua-57" edge="1">
          <mxGeometry relative="1" as="geometry" />
        </mxCell>
        <mxCell id="Qv8bskhtYxNWibmQk5ua-59" value="" style="shape=trapezoid;perimeter=trapezoidPerimeter;whiteSpace=wrap;html=1;fixedSize=1;rotation=-90;" parent="1" vertex="1">
          <mxGeometry x="2090" y="3050" width="120" height="30" as="geometry" />
        </mxCell>
        <mxCell id="Qv8bskhtYxNWibmQk5ua-66" style="edgeStyle=orthogonalEdgeStyle;rounded=0;orthogonalLoop=1;jettySize=auto;html=1;exitX=0.5;exitY=0;exitDx=0;exitDy=0;entryX=0.5;entryY=0;entryDx=0;entryDy=0;" parent="1" source="Qv8bskhtYxNWibmQk5ua-63" target="Qv8bskhtYxNWibmQk5ua-55" edge="1">
          <mxGeometry relative="1" as="geometry" />
        </mxCell>
        <mxCell id="Qv8bskhtYxNWibmQk5ua-63" value="" style="shape=trapezoid;perimeter=trapezoidPerimeter;whiteSpace=wrap;html=1;fixedSize=1;rotation=-90;direction=north;" parent="1" vertex="1">
          <mxGeometry x="1989.95" y="2875" width="30" height="120" as="geometry" />
        </mxCell>
        <mxCell id="Qv8bskhtYxNWibmQk5ua-67" value="x3 -&amp;gt; p12" style="text;html=1;align=center;verticalAlign=middle;resizable=0;points=[];autosize=1;strokeColor=none;fillColor=none;" parent="1" vertex="1">
          <mxGeometry x="1785" y="3205" width="70" height="30" as="geometry" />
        </mxCell>
        <mxCell id="Qv8bskhtYxNWibmQk5ua-68" value="x3 -&amp;gt; p33(p12)" style="text;html=1;align=center;verticalAlign=middle;resizable=0;points=[];autosize=1;strokeColor=none;fillColor=none;" parent="1" vertex="1">
          <mxGeometry x="1770" y="3235" width="100" height="30" as="geometry" />
        </mxCell>
        <mxCell id="Qv8bskhtYxNWibmQk5ua-70" style="edgeStyle=orthogonalEdgeStyle;rounded=0;orthogonalLoop=1;jettySize=auto;html=1;exitX=1;exitY=0.25;exitDx=0;exitDy=0;entryX=1;entryY=0.25;entryDx=0;entryDy=0;" parent="1" target="Qv8bskhtYxNWibmQk5ua-69" edge="1">
          <mxGeometry relative="1" as="geometry">
            <mxPoint x="1380" y="2770.333333333333" as="sourcePoint" />
          </mxGeometry>
        </mxCell>
        <mxCell id="Qv8bskhtYxNWibmQk5ua-72" style="edgeStyle=orthogonalEdgeStyle;rounded=0;orthogonalLoop=1;jettySize=auto;html=1;exitX=1;exitY=0.75;exitDx=0;exitDy=0;entryX=1;entryY=0.75;entryDx=0;entryDy=0;" parent="1" target="Qv8bskhtYxNWibmQk5ua-69" edge="1">
          <mxGeometry relative="1" as="geometry">
            <mxPoint x="1410" y="3110.333333333333" as="sourcePoint" />
          </mxGeometry>
        </mxCell>
        <mxCell id="Qv8bskhtYxNWibmQk5ua-69" value="" style="rounded=0;whiteSpace=wrap;html=1;fillColor=#dae8fc;strokeColor=#6c8ebf;" parent="1" vertex="1">
          <mxGeometry x="1040" y="2600" width="210" height="680" as="geometry" />
        </mxCell>
        <mxCell id="Qv8bskhtYxNWibmQk5ua-71" value="tail" style="text;html=1;align=center;verticalAlign=middle;resizable=0;points=[];autosize=1;strokeColor=none;fillColor=none;" parent="1" vertex="1">
          <mxGeometry x="1400" y="2755" width="40" height="30" as="geometry" />
        </mxCell>
        <mxCell id="Qv8bskhtYxNWibmQk5ua-73" value="head" style="text;html=1;align=center;verticalAlign=middle;resizable=0;points=[];autosize=1;strokeColor=none;fillColor=none;" parent="1" vertex="1">
          <mxGeometry x="1415" y="3095" width="50" height="30" as="geometry" />
        </mxCell>
        <mxCell id="Qv8bskhtYxNWibmQk5ua-74" value="" style="rounded=0;whiteSpace=wrap;html=1;fillColor=#f8cecc;strokeColor=#b85450;" parent="1" vertex="1">
          <mxGeometry x="1040" y="2770" width="210" height="340" as="geometry" />
        </mxCell>
        <mxCell id="Qv8bskhtYxNWibmQk5ua-77" style="edgeStyle=orthogonalEdgeStyle;rounded=0;orthogonalLoop=1;jettySize=auto;html=1;exitX=1;exitY=0.75;exitDx=0;exitDy=0;entryX=1;entryY=0.75;entryDx=0;entryDy=0;" parent="1" target="Qv8bskhtYxNWibmQk5ua-76" edge="1">
          <mxGeometry relative="1" as="geometry">
            <mxPoint x="1200" y="3824.7837837837833" as="sourcePoint" />
          </mxGeometry>
        </mxCell>
        <mxCell id="Qv8bskhtYxNWibmQk5ua-79" style="edgeStyle=orthogonalEdgeStyle;rounded=0;orthogonalLoop=1;jettySize=auto;html=1;exitX=1;exitY=0.25;exitDx=0;exitDy=0;entryX=1;entryY=0.25;entryDx=0;entryDy=0;" parent="1" target="Qv8bskhtYxNWibmQk5ua-76" edge="1">
          <mxGeometry relative="1" as="geometry">
            <mxPoint x="1220" y="3635.054054054054" as="sourcePoint" />
          </mxGeometry>
        </mxCell>
        <mxCell id="Qv8bskhtYxNWibmQk5ua-76" value="" style="rounded=0;whiteSpace=wrap;html=1;fillColor=#dae8fc;strokeColor=#6c8ebf;" parent="1" vertex="1">
          <mxGeometry x="1000" y="3540" width="120" height="380" as="geometry" />
        </mxCell>
        <mxCell id="Qv8bskhtYxNWibmQk5ua-78" value="tail" style="text;html=1;align=center;verticalAlign=middle;resizable=0;points=[];autosize=1;strokeColor=none;fillColor=none;" parent="1" vertex="1">
          <mxGeometry x="1200" y="3810" width="40" height="30" as="geometry" />
        </mxCell>
        <mxCell id="Qv8bskhtYxNWibmQk5ua-80" value="head" style="text;html=1;align=center;verticalAlign=middle;resizable=0;points=[];autosize=1;strokeColor=none;fillColor=none;" parent="1" vertex="1">
          <mxGeometry x="1225" y="3615" width="50" height="30" as="geometry" />
        </mxCell>
        <mxCell id="Qv8bskhtYxNWibmQk5ua-81" value="" style="rounded=0;whiteSpace=wrap;html=1;fillColor=#f8cecc;strokeColor=#b85450;" parent="1" vertex="1">
          <mxGeometry x="1000" y="3540" width="120" height="100" as="geometry" />
        </mxCell>
        <mxCell id="Qv8bskhtYxNWibmQk5ua-82" value="" style="rounded=0;whiteSpace=wrap;html=1;fillColor=#f8cecc;strokeColor=#b85450;" parent="1" vertex="1">
          <mxGeometry x="1000" y="3820" width="120" height="100" as="geometry" />
        </mxCell>
        <mxCell id="Qv8bskhtYxNWibmQk5ua-83" style="edgeStyle=orthogonalEdgeStyle;rounded=0;orthogonalLoop=1;jettySize=auto;html=1;exitX=1;exitY=0.75;exitDx=0;exitDy=0;entryX=1;entryY=0.75;entryDx=0;entryDy=0;" parent="1" edge="1">
          <mxGeometry relative="1" as="geometry">
            <mxPoint x="1249.9999999999995" y="2955" as="targetPoint" />
            <mxPoint x="1409.9999999999995" y="2955.333333333333" as="sourcePoint" />
            <Array as="points">
              <mxPoint x="1250" y="2955" />
            </Array>
          </mxGeometry>
        </mxCell>
        <mxCell id="Qv8bskhtYxNWibmQk5ua-84" value="br1" style="text;html=1;align=center;verticalAlign=middle;resizable=0;points=[];autosize=1;strokeColor=none;fillColor=none;" parent="1" vertex="1">
          <mxGeometry x="1420" y="2940" width="40" height="30" as="geometry" />
        </mxCell>
        <mxCell id="Qv8bskhtYxNWibmQk5ua-85" value="conditional under branch&lt;br&gt;&lt;br&gt;reroll head to branch in case of misprediction" style="rounded=0;whiteSpace=wrap;html=1;fillColor=#ffe6cc;strokeColor=#d79b00;" parent="1" vertex="1">
          <mxGeometry x="1040" y="2960" width="210" height="150" as="geometry" />
        </mxCell>
        <mxCell id="Qv8bskhtYxNWibmQk5ua-86" value="" style="rounded=0;whiteSpace=wrap;html=1;" parent="1" vertex="1">
          <mxGeometry x="2230" y="3220" width="120.09" height="120" as="geometry" />
        </mxCell>
        <mxCell id="Qv8bskhtYxNWibmQk5ua-87" value="" style="rounded=0;whiteSpace=wrap;html=1;" parent="1" vertex="1">
          <mxGeometry x="2230" y="3360" width="120.09" height="120" as="geometry" />
        </mxCell>
        <mxCell id="Qv8bskhtYxNWibmQk5ua-88" value="head" style="rounded=0;whiteSpace=wrap;html=1;" parent="1" vertex="1">
          <mxGeometry x="1840" y="3430" width="120" height="60" as="geometry" />
        </mxCell>
        <mxCell id="Qv8bskhtYxNWibmQk5ua-89" value="tail" style="rounded=0;whiteSpace=wrap;html=1;" parent="1" vertex="1">
          <mxGeometry x="1840" y="3585" width="120" height="60" as="geometry" />
        </mxCell>
        <mxCell id="Qv8bskhtYxNWibmQk5ua-90" value="" style="rounded=1;whiteSpace=wrap;html=1;fontSize=40;fillColor=#f5f5f5;fontColor=#333333;strokeColor=#666666;" parent="1" vertex="1">
          <mxGeometry x="-2960" y="1680" width="1340.09" height="810" as="geometry" />
        </mxCell>
        <mxCell id="Qv8bskhtYxNWibmQk5ua-91" value="// decode&lt;br&gt;val brId = allocate()&lt;br&gt;snapshots[brId] = arch2specMap&lt;br&gt;&lt;br&gt;// after execution&lt;br&gt;if(mispredicted) {&lt;br&gt;&amp;nbsp; arch2specMap = snapshots[brId]&lt;br&gt;&amp;nbsp; head = destTag&lt;br&gt;&amp;nbsp; for br in branchIds {&lt;br&gt;&amp;nbsp; &amp;nbsp; if br &amp;gt; brId then deallocate(br)&lt;br&gt;&amp;nbsp; }&lt;br&gt;}&lt;br&gt;deallocate()" style="text;html=1;align=left;verticalAlign=middle;resizable=0;points=[];autosize=1;strokeColor=none;fillColor=none;fontSize=40;" parent="1" vertex="1">
          <mxGeometry x="-2820" y="1805" width="630" height="640" as="geometry" />
        </mxCell>
        <mxCell id="Qv8bskhtYxNWibmQk5ua-92" value="Branches" style="text;html=1;align=center;verticalAlign=middle;resizable=0;points=[];autosize=1;strokeColor=none;fillColor=none;fontSize=43;fontStyle=1" parent="1" vertex="1">
          <mxGeometry x="-2690" y="1690" width="220" height="70" as="geometry" />
        </mxCell>
        <mxCell id="Qv8bskhtYxNWibmQk5ua-94" value="br0" style="rounded=0;whiteSpace=wrap;html=1;fillColor=#f8cecc;strokeColor=#b85450;" parent="1" vertex="1">
          <mxGeometry x="2079.91" y="3640" width="120" height="40" as="geometry" />
        </mxCell>
        <mxCell id="Qv8bskhtYxNWibmQk5ua-99" style="edgeStyle=orthogonalEdgeStyle;rounded=0;orthogonalLoop=1;jettySize=auto;html=1;exitX=1;exitY=0.5;exitDx=0;exitDy=0;entryX=1;entryY=0.5;entryDx=0;entryDy=0;" parent="1" target="Qv8bskhtYxNWibmQk5ua-96" edge="1">
          <mxGeometry relative="1" as="geometry">
            <mxPoint x="2240" y="3700.2258064516127" as="sourcePoint" />
          </mxGeometry>
        </mxCell>
        <mxCell id="Qv8bskhtYxNWibmQk5ua-96" value="br1" style="rounded=0;whiteSpace=wrap;html=1;fillColor=#ffe6cc;strokeColor=#d79b00;" parent="1" vertex="1">
          <mxGeometry x="2079.91" y="3680" width="120" height="40" as="geometry" />
        </mxCell>
        <mxCell id="Qv8bskhtYxNWibmQk5ua-104" style="edgeStyle=orthogonalEdgeStyle;rounded=0;orthogonalLoop=1;jettySize=auto;html=1;exitX=1;exitY=0.5;exitDx=0;exitDy=0;entryX=1;entryY=0.5;entryDx=0;entryDy=0;" parent="1" target="Qv8bskhtYxNWibmQk5ua-97" edge="1">
          <mxGeometry relative="1" as="geometry">
            <mxPoint x="2279.9999999999995" y="3760" as="sourcePoint" />
          </mxGeometry>
        </mxCell>
        <mxCell id="Qv8bskhtYxNWibmQk5ua-97" value="br2" style="rounded=0;whiteSpace=wrap;html=1;fillColor=#f8cecc;strokeColor=#b85450;" parent="1" vertex="1">
          <mxGeometry x="2079.91" y="3720" width="120" height="40" as="geometry" />
        </mxCell>
        <mxCell id="Qv8bskhtYxNWibmQk5ua-98" value="br3" style="rounded=0;whiteSpace=wrap;html=1;fillColor=#f8cecc;strokeColor=#b85450;" parent="1" vertex="1">
          <mxGeometry x="2079.91" y="3760" width="120" height="40" as="geometry" />
        </mxCell>
        <mxCell id="Qv8bskhtYxNWibmQk5ua-100" value="oldest" style="text;html=1;align=center;verticalAlign=middle;resizable=0;points=[];autosize=1;strokeColor=none;fillColor=none;" parent="1" vertex="1">
          <mxGeometry x="2240" y="3685" width="60" height="30" as="geometry" />
        </mxCell>
        <mxCell id="Qv8bskhtYxNWibmQk5ua-101" style="edgeStyle=orthogonalEdgeStyle;rounded=0;orthogonalLoop=1;jettySize=auto;html=1;exitX=1;exitY=0.5;exitDx=0;exitDy=0;entryX=1;entryY=0.5;entryDx=0;entryDy=0;" parent="1" edge="1">
          <mxGeometry relative="1" as="geometry">
            <mxPoint x="2199.91" y="3655" as="targetPoint" />
            <mxPoint x="2240" y="3655.2258064516127" as="sourcePoint" />
            <Array as="points">
              <mxPoint x="2210" y="3655" />
              <mxPoint x="2210" y="3655" />
            </Array>
          </mxGeometry>
        </mxCell>
        <mxCell id="Qv8bskhtYxNWibmQk5ua-102" value="newest" style="text;html=1;align=center;verticalAlign=middle;resizable=0;points=[];autosize=1;strokeColor=none;fillColor=none;" parent="1" vertex="1">
          <mxGeometry x="2240" y="3640" width="60" height="30" as="geometry" />
        </mxCell>
        <mxCell id="Qv8bskhtYxNWibmQk5ua-105" value="mispredicted" style="text;html=1;align=center;verticalAlign=middle;resizable=0;points=[];autosize=1;strokeColor=none;fillColor=none;" parent="1" vertex="1">
          <mxGeometry x="2270.09" y="3745" width="90" height="30" as="geometry" />
        </mxCell>
        <mxCell id="Qv8bskhtYxNWibmQk5ua-106" value="Allocator&lt;br&gt;(head &amp;amp; tail)" style="rounded=0;whiteSpace=wrap;html=1;" parent="1" vertex="1">
          <mxGeometry x="3404.91" y="3645" width="160" height="120" as="geometry" />
        </mxCell>
        <mxCell id="Qv8bskhtYxNWibmQk5ua-107" value="0000&lt;br&gt;&lt;br&gt;1000&lt;br&gt;&lt;br&gt;1100&lt;br&gt;&lt;br&gt;1110" style="text;html=1;align=center;verticalAlign=middle;resizable=0;points=[];autosize=1;strokeColor=none;fillColor=none;" parent="1" vertex="1">
          <mxGeometry x="1615" y="2905" width="50" height="110" as="geometry" />
        </mxCell>
        <mxCell id="Qv8bskhtYxNWibmQk5ua-108" value="" style="rounded=0;whiteSpace=wrap;html=1;" parent="1" vertex="1">
          <mxGeometry x="740" y="2760" width="210" height="20" as="geometry" />
        </mxCell>
        <mxCell id="Qv8bskhtYxNWibmQk5ua-109" style="edgeStyle=orthogonalEdgeStyle;rounded=0;orthogonalLoop=1;jettySize=auto;html=1;exitX=1;exitY=0.75;exitDx=0;exitDy=0;entryX=1;entryY=0.75;entryDx=0;entryDy=0;" parent="1" edge="1">
          <mxGeometry relative="1" as="geometry">
            <mxPoint x="1254.9999999999995" y="2885" as="targetPoint" />
            <mxPoint x="1414.9999999999995" y="2885.333333333333" as="sourcePoint" />
            <Array as="points">
              <mxPoint x="1255" y="2885" />
            </Array>
          </mxGeometry>
        </mxCell>
        <mxCell id="Qv8bskhtYxNWibmQk5ua-110" value="br0" style="text;html=1;align=center;verticalAlign=middle;resizable=0;points=[];autosize=1;strokeColor=none;fillColor=none;" parent="1" vertex="1">
          <mxGeometry x="1425" y="2870" width="40" height="30" as="geometry" />
        </mxCell>
        <mxCell id="Qv8bskhtYxNWibmQk5ua-118" value="" style="rounded=0;whiteSpace=wrap;html=1;" parent="1" vertex="1">
          <mxGeometry x="1040" y="3080" width="210" height="15" as="geometry" />
        </mxCell>
        <mxCell id="XPyX1MKlA9ATD1nAIHYy-2" style="edgeStyle=orthogonalEdgeStyle;rounded=0;orthogonalLoop=1;jettySize=auto;html=1;exitX=1;exitY=0.5;exitDx=0;exitDy=0;" edge="1" parent="1" source="Qv8bskhtYxNWibmQk5ua-127">
          <mxGeometry relative="1" as="geometry">
            <mxPoint x="420" y="1479.8571428571427" as="targetPoint" />
          </mxGeometry>
        </mxCell>
        <mxCell id="Qv8bskhtYxNWibmQk5ua-127" value="arch2state&lt;br&gt;map" style="rounded=0;whiteSpace=wrap;html=1;fillColor=#f5f5f5;fontColor=#333333;strokeColor=#666666;" parent="1" vertex="1">
          <mxGeometry x="290" y="1440" width="80" height="80" as="geometry" />
        </mxCell>
        <mxCell id="Qv8bskhtYxNWibmQk5ua-133" value="branchAllocator" style="rounded=0;whiteSpace=wrap;html=1;" parent="1" vertex="1">
          <mxGeometry x="3404.91" y="3165" width="160" height="120" as="geometry" />
        </mxCell>
        <mxCell id="Qv8bskhtYxNWibmQk5ua-134" value="specmap&lt;br&gt;(snapshots)" style="rounded=0;whiteSpace=wrap;html=1;" parent="1" vertex="1">
          <mxGeometry x="3404.91" y="3325" width="160" height="120" as="geometry" />
        </mxCell>
        <mxCell id="Qv8bskhtYxNWibmQk5ua-135" value="statemap" style="rounded=0;whiteSpace=wrap;html=1;" parent="1" vertex="1">
          <mxGeometry x="3404.91" y="3475" width="160" height="120" as="geometry" />
        </mxCell>
        <mxCell id="Qv8bskhtYxNWibmQk5ua-136" value="ROB" style="rounded=0;whiteSpace=wrap;html=1;" parent="1" vertex="1">
          <mxGeometry x="4124.91" y="2865" width="160" height="120" as="geometry" />
        </mxCell>
        <mxCell id="Qv8bskhtYxNWibmQk5ua-138" value="retirement" style="rounded=0;whiteSpace=wrap;html=1;" parent="1" vertex="1">
          <mxGeometry x="3924.91" y="2860" width="160" height="120" as="geometry" />
        </mxCell>
        <mxCell id="Qv8bskhtYxNWibmQk5ua-139" value="wake-up&lt;br&gt;queue" style="rounded=0;whiteSpace=wrap;html=1;" parent="1" vertex="1">
          <mxGeometry x="4124.91" y="3025" width="770" height="840" as="geometry" />
        </mxCell>
        <mxCell id="Qv8bskhtYxNWibmQk5ua-140" value="waiting cell" style="rounded=0;whiteSpace=wrap;html=1;" parent="1" vertex="1">
          <mxGeometry x="4154.91" y="3115" width="280" height="70" as="geometry" />
        </mxCell>
        <mxCell id="Qv8bskhtYxNWibmQk5ua-141" value="waiting cell" style="rounded=0;whiteSpace=wrap;html=1;" parent="1" vertex="1">
          <mxGeometry x="4154.91" y="3185" width="280" height="70" as="geometry" />
        </mxCell>
        <mxCell id="Qv8bskhtYxNWibmQk5ua-142" value="waiting cell" style="rounded=0;whiteSpace=wrap;html=1;" parent="1" vertex="1">
          <mxGeometry x="4154.91" y="3255" width="280" height="70" as="geometry" />
        </mxCell>
        <mxCell id="Qv8bskhtYxNWibmQk5ua-143" value="waiting cell" style="rounded=0;whiteSpace=wrap;html=1;" parent="1" vertex="1">
          <mxGeometry x="4154.91" y="3325" width="280" height="70" as="geometry" />
        </mxCell>
        <mxCell id="Qv8bskhtYxNWibmQk5ua-144" value="waiting cell" style="rounded=0;whiteSpace=wrap;html=1;" parent="1" vertex="1">
          <mxGeometry x="4154.91" y="3395" width="280" height="70" as="geometry" />
        </mxCell>
        <mxCell id="XPyX1MKlA9ATD1nAIHYy-1" value="IssueQueue" style="rounded=0;whiteSpace=wrap;html=1;fillColor=#f5f5f5;fontColor=#333333;strokeColor=#666666;" vertex="1" parent="1">
          <mxGeometry x="790" y="230" width="210" height="1740" as="geometry" />
        </mxCell>
        <mxCell id="XPyX1MKlA9ATD1nAIHYy-3" value="isAlreadyAllocated" style="text;html=1;align=center;verticalAlign=middle;resizable=0;points=[];autosize=1;strokeColor=none;fillColor=none;" vertex="1" parent="1">
          <mxGeometry x="390" y="1450" width="120" height="30" as="geometry" />
        </mxCell>
        <mxCell id="XPyX1MKlA9ATD1nAIHYy-18" value="eventbus&lt;br&gt;goes to every module with speculative instructions" style="text;html=1;align=center;verticalAlign=middle;resizable=0;points=[];autosize=1;strokeColor=#b85450;fillColor=#f8cecc;" vertex="1" parent="1">
          <mxGeometry x="1320" y="15" width="290" height="40" as="geometry" />
        </mxCell>
        <mxCell id="XPyX1MKlA9ATD1nAIHYy-21" style="edgeStyle=orthogonalEdgeStyle;rounded=0;orthogonalLoop=1;jettySize=auto;html=1;exitX=1.009;exitY=0.488;exitDx=0;exitDy=0;entryX=0;entryY=0.5;entryDx=0;entryDy=0;exitPerimeter=0;" edge="1" parent="1" source="7qlLy7Mz_lEwMJBJuUpn-1" target="XPyX1MKlA9ATD1nAIHYy-19">
          <mxGeometry relative="1" as="geometry">
            <mxPoint x="1789.77" y="1070" as="sourcePoint" />
          </mxGeometry>
        </mxCell>
        <mxCell id="XPyX1MKlA9ATD1nAIHYy-26" style="edgeStyle=orthogonalEdgeStyle;rounded=0;orthogonalLoop=1;jettySize=auto;html=1;exitX=1;exitY=0.5;exitDx=0;exitDy=0;entryX=-0.001;entryY=0.179;entryDx=0;entryDy=0;entryPerimeter=0;" edge="1" parent="1" source="XPyX1MKlA9ATD1nAIHYy-19" target="XPyX1MKlA9ATD1nAIHYy-25">
          <mxGeometry relative="1" as="geometry" />
        </mxCell>
        <mxCell id="XPyX1MKlA9ATD1nAIHYy-31" style="edgeStyle=orthogonalEdgeStyle;rounded=0;orthogonalLoop=1;jettySize=auto;html=1;exitX=0.5;exitY=0;exitDx=0;exitDy=0;entryX=0.5;entryY=0;entryDx=0;entryDy=0;" edge="1" parent="1" source="XPyX1MKlA9ATD1nAIHYy-19" target="XPyX1MKlA9ATD1nAIHYy-29">
          <mxGeometry relative="1" as="geometry" />
        </mxCell>
        <mxCell id="XPyX1MKlA9ATD1nAIHYy-19" value="LoadQueue" style="rounded=0;whiteSpace=wrap;html=1;fillColor=#ffe6cc;strokeColor=#d79b00;" vertex="1" parent="1">
          <mxGeometry x="1829.77" y="1020" width="280.05" height="100" as="geometry" />
        </mxCell>
        <mxCell id="XPyX1MKlA9ATD1nAIHYy-22" style="edgeStyle=orthogonalEdgeStyle;rounded=0;orthogonalLoop=1;jettySize=auto;html=1;exitX=1.006;exitY=0.609;exitDx=0;exitDy=0;entryX=0;entryY=0.5;entryDx=0;entryDy=0;exitPerimeter=0;" edge="1" parent="1" source="7qlLy7Mz_lEwMJBJuUpn-1" target="XPyX1MKlA9ATD1nAIHYy-20">
          <mxGeometry relative="1" as="geometry" />
        </mxCell>
        <mxCell id="XPyX1MKlA9ATD1nAIHYy-28" style="edgeStyle=orthogonalEdgeStyle;rounded=0;orthogonalLoop=1;jettySize=auto;html=1;exitX=1;exitY=0.5;exitDx=0;exitDy=0;entryX=-0.01;entryY=0.821;entryDx=0;entryDy=0;entryPerimeter=0;" edge="1" parent="1" source="XPyX1MKlA9ATD1nAIHYy-20" target="XPyX1MKlA9ATD1nAIHYy-25">
          <mxGeometry relative="1" as="geometry" />
        </mxCell>
        <mxCell id="XPyX1MKlA9ATD1nAIHYy-20" value="StoreQueue" style="rounded=0;whiteSpace=wrap;html=1;fillColor=#ffe6cc;strokeColor=#d79b00;" vertex="1" parent="1">
          <mxGeometry x="1829.77" y="1230" width="280.05" height="100" as="geometry" />
        </mxCell>
        <mxCell id="XPyX1MKlA9ATD1nAIHYy-27" style="edgeStyle=orthogonalEdgeStyle;rounded=0;orthogonalLoop=1;jettySize=auto;html=1;exitX=0;exitY=0.25;exitDx=0;exitDy=0;entryX=1.007;entryY=0.706;entryDx=0;entryDy=0;entryPerimeter=0;" edge="1" parent="1" source="XPyX1MKlA9ATD1nAIHYy-25" target="XPyX1MKlA9ATD1nAIHYy-19">
          <mxGeometry relative="1" as="geometry" />
        </mxCell>
        <mxCell id="XPyX1MKlA9ATD1nAIHYy-25" value="Mem" style="rounded=0;whiteSpace=wrap;html=1;fillColor=#dae8fc;strokeColor=#6c8ebf;" vertex="1" parent="1">
          <mxGeometry x="2250.82" y="1020" width="179.91" height="330" as="geometry" />
        </mxCell>
        <mxCell id="XPyX1MKlA9ATD1nAIHYy-30" style="edgeStyle=orthogonalEdgeStyle;rounded=0;orthogonalLoop=1;jettySize=auto;html=1;exitX=1.013;exitY=0.305;exitDx=0;exitDy=0;entryX=0;entryY=0.5;entryDx=0;entryDy=0;exitPerimeter=0;" edge="1" parent="1" source="7qlLy7Mz_lEwMJBJuUpn-1" target="XPyX1MKlA9ATD1nAIHYy-29">
          <mxGeometry relative="1" as="geometry" />
        </mxCell>
        <mxCell id="XPyX1MKlA9ATD1nAIHYy-29" value="exe res or load res?" style="rounded=0;whiteSpace=wrap;html=1;" vertex="1" parent="1">
          <mxGeometry x="1640" y="720" width="120" height="60" as="geometry" />
        </mxCell>
      </root>
    </mxGraphModel>
  </diagram>
</mxfile>
